<svg xmlns="http://www.w3.org/2000/svg" width="30.5" height="42" viewBox="0 0 30.5 42"><defs><style>.cls-1{fill:#ef4d94;fill-rule:evenodd}</style></defs><path class="cls-1" d="M15.25 0A15.275 15.275 0 0 0 0 15.25c0 5.37 3.482 9.85 7.165 14.54 2.8 3.6 5.724 7.33 7.325 11.69a.816.816 0 0 0 1.521 0c1.6-4.4 4.483-8.13 7.325-11.69 3.682-4.73 7.165-9.17 7.165-14.54A15.275 15.275 0 0 0 15.25 0zm6.8 28.83c-2.482 3.2-5.083 6.48-6.8 10.29a51.275 51.275 0 0 0-6.8-10.29c-3.522-4.49-6.844-8.73-6.844-13.58a13.65 13.65 0 1 1 27.3 0c-.007 4.85-3.329 9.09-6.856 13.58zm1.241-17.1l-4.763-1.16-2.562-4.16a.779.779 0 0 0-1.361 0l-2.522 4.16-4.763 1.16a.815.815 0 0 0-.56.52.746.746 0 0 0 .16.76l3.162 3.69-.4 4.88a.736.736 0 0 0 .32.72.752.752 0 0 0 .761.08l4.483-1.88 4.523 1.88a1.235 1.235 0 0 0 .36.04.769.769 0 0 0 .48-.16.736.736 0 0 0 .32-.72l-.4-4.88 3.162-3.69a.765.765 0 0 0 .16-.76.7.7 0 0 0-.556-.48zm-4.2 4.17a.785.785 0 0 0-.2.6l.32 3.88-3.6-1.48a.755.755 0 0 0-.32-.08.943.943 0 0 0-.32.08l-3.6 1.48.32-3.88a.841.841 0 0 0-.2-.6l-2.562-2.93 3.883-.96a.745.745 0 0 0 .48-.36l2-3.32 2.041 3.32a.714.714 0 0 0 .48.36l3.8.92z"/></svg>