<svg xmlns="http://www.w3.org/2000/svg" width="33.625" height="38.314" viewBox="0 0 33.625 38.314"><defs><style>.cls-1{fill:#ef4d94;fill-rule:evenodd}</style></defs><path class="cls-1" d="M29.612 3.144h-7.6a.507.507 0 0 0-.24.04l-.28-.279-3.2-2.439a2.46 2.46 0 0 0-2.92 0l-3.2 2.439a1.689 1.689 0 0 0-.28.239h-7.88a4.011 4.011 0 0 0-4 4v1.6a2.381 2.381 0 0 0 1.6 2.239v23.345c0 2.28 2.32 4 4.4 4h22a4.012 4.012 0 0 0 4-4V11.019a2.418 2.418 0 0 0 1.6-2.279v-1.6a4.011 4.011 0 0 0-4-3.996zm-16.8 1.678a.87.87 0 0 1 .28-.639l3.24-2.479a.7.7 0 0 1 .48-.16.88.88 0 0 1 .52.16l3.2 2.439a.774.774 0 0 1 .32.64v.761a.8.8 0 0 1-.8.8h-6.44a.8.8 0 0 1-.8-.8v-.72zm19.2 3.922a.824.824 0 0 1-.64.8.039.039 0 0 0-.04.04h-.12a.8.8 0 0 0-.8.8v23.984a2.407 2.407 0 0 1-2.4 2.4h-22c-1.28 0-2.8-1.08-2.8-2.4V11.144h15.6a.8.8 0 1 0 0-1.6h-16.4a.8.8 0 0 1-.8-.8v-1.6a2.406 2.406 0 0 1 2.4-2.4h7.2v.8a2.407 2.407 0 0 0 2.4 2.4h6.44a2.407 2.407 0 0 0 2.4-2.4v-.8h7.16a2.406 2.406 0 0 1 2.4 2.4v1.6zm-6 .8h-1.2a.8.8 0 1 0 0 1.6h1.2a.8.8 0 1 0 0-1.6zm-18 6.4h-.8a.8.8 0 1 0 0 1.6h.8a.803.803 0 1 0 0-1.607zm0 4.8h-.8a.8.8 0 1 0 0 1.6h.8a.805.805 0 1 0 0-1.61zm3.6-3.2h11.2a.8.8 0 1 0 0-1.6h-11.2a.8.8 0 1 0 0 1.592zm13.2 3.2h-13.2a.8.8 0 1 0 0 1.6h13.2a.805.805 0 1 0 0-1.61zm-16.8 4.8h-.8a.8.8 0 1 0 0 1.6h.8a.806.806 0 1 0 0-1.612zm12.4 0h-8.8a.8.8 0 1 0 0 1.6h8.8a.806.806 0 1 0 0-1.612z"/></svg>