<svg xmlns="http://www.w3.org/2000/svg" width="48.563" height="63.562" viewBox="0 0 48.563 63.562"><defs><style>.cls-1{fill:#2c9c90;fill-rule:evenodd}</style></defs><path class="cls-1" d="M48.512 27.206a1.172 1.172 0 0 0-1.139-.779H28.954L44.793 1.9a1.272 1.272 0 0 0-.18-1.559 1.186 1.186 0 0 0-1.56-.06L.453 33.869a1.232 1.232 0 0 0-.42 1.32 1.121 1.121 0 0 0 1.14.779h17.639L2.553 61.699a1.21 1.21 0 0 0 .24 1.56 1.413 1.413 0 0 0 .78.3 1.048 1.048 0 0 0 .72-.24l43.8-34.788a1.139 1.139 0 0 0 .419-1.325zM8.377 57.076l13.618-21.652a1.226 1.226 0 0 0 .06-1.2 1.26 1.26 0 0 0-1.08-.6H4.657l34.2-26.99-13.138 20.333a1.224 1.224 0 0 0-.06 1.2 1.189 1.189 0 0 0 1.08.6h17.218z"/></svg>