<svg xmlns="http://www.w3.org/2000/svg" width="68.344" height="45.469" viewBox="0 0 68.344 45.469"><defs><style>.cls-1{fill:#2c9c90;fill-rule:evenodd}</style></defs><path class="cls-1" d="M36.509 35.908h-4.136a1.2 1.2 0 1 0 0 2.393h4.136a1.2 1.2 0 1 0 0-2.393zm31.773 1.2a1.2 1.2 0 0 0-1.2-1.2h-4.136V6a6.007 6.007 0 0 0-6-5.983H11.391A6.007 6.007 0 0 0 5.396 6v29.913h-4.2a1.2 1.2 0 0 0-1.2 1.2V39.5a6.006 6.006 0 0 0 5.995 5.983h56.352a6.007 6.007 0 0 0 6-5.983zm-2.338 2.393a3.6 3.6 0 0 1-3.6 3.59H5.995a3.6 3.6 0 0 1-3.6-3.59v-1.2h24.04a1.2 1.2 0 1 0 0-2.393H7.794V6a3.6 3.6 0 0 1 3.6-3.59h45.562a3.6 3.6 0 0 1 3.6 3.59v29.913H42.564a1.2 1.2 0 1 0 0 2.393h23.38v1.2zm-7.788-7.781V6.593a1.765 1.765 0 0 0-1.8-1.795H11.99a1.765 1.765 0 0 0-1.8 1.795V31.72a1.765 1.765 0 0 0 1.8 1.795h44.366a1.765 1.765 0 0 0 1.8-1.795zm-2.4-.6H12.59V7.191h43.166v23.931z"/></svg>