<svg xmlns="http://www.w3.org/2000/svg" width="27" height="25" viewBox="0 0 27 25"><defs><style>.cls-1{fill:#343434;fill-rule:evenodd}</style></defs><path id="Shape_1_копия" data-name="Shape 1 копия" class="cls-1" d="M175.492 467.4a6.218 6.218 0 0 0-7.1 2.007 1.207 1.207 0 0 1-1.818 0 6.217 6.217 0 0 0-7.1-2.007 9.09 9.09 0 0 0-5.474 8.681c0 6.109 5.015 10.034 9.883 13.812.645.5 1.32 1 1.965 1.534a2.634 2.634 0 0 0 1.642.561 2.717 2.717 0 0 0 1.672-.561c.645-.531 1.32-1.033 1.994-1.564 4.839-3.777 9.854-7.673 9.854-13.782-.034-3.981-2.234-7.467-5.518-8.681zm-5.074 21.515c-.675.531-1.349 1.033-1.994 1.564a1.533 1.533 0 0 1-1.848 0c-.645-.5-1.29-1.033-1.965-1.535-4.634-3.6-9.443-7.348-9.443-12.867a7.821 7.821 0 0 1 4.721-7.555 5.1 5.1 0 0 1 1.819-.355 5.184 5.184 0 0 1 3.988 2.007 2.341 2.341 0 0 0 1.789.827 2.3 2.3 0 0 0 1.789-.827 5.039 5.039 0 0 1 5.807-1.682 7.838 7.838 0 0 1 4.722 7.585c-.003 5.552-4.575 9.094-9.385 12.842zm-11.7-12.927a2.737 2.737 0 0 1-.029-.5.587.587 0 1 0-1.173 0 5.783 5.783 0 0 0 .029.678.577.577 0 0 0 .587.5h.088a.618.618 0 0 0 .496-.674zm5.573 7.674a15.064 15.064 0 0 1-4.693-4.959.584.584 0 0 0-.792-.236.591.591 0 0 0-.234.8 15.948 15.948 0 0 0 5.044 5.371.589.589 0 0 0 .323.089.611.611 0 0 0 .5-.266.551.551 0 0 0-.15-.795z" transform="translate(-154 -467)"/></svg>