<?xml version="1.0" encoding="utf-8"?>
<!-- Generator: Adobe Illustrator 21.0.2, SVG Export Plug-In . SVG Version: 6.00 Build 0)  -->
<svg version="1.1" id="Слой_1" xmlns="http://www.w3.org/2000/svg" xmlns:xlink="http://www.w3.org/1999/xlink" x="0px" y="0px"
	 viewBox="0 0 13 22" style="enable-background:new 0 0 13 22;" xml:space="preserve">
<style type="text/css">
	.st0{fill-rule:evenodd;clip-rule:evenodd;fill:#2C9C90;}
</style>
<path class="st0" d="M12.618,2.058L6.404,7.941l-3.259,3.085l3.227,3.054l6.214,5.883l0.022-0.021c0.508,0.481,0.508,1.235,0,1.717
	c-0.313,0.296-0.732,0.388-1.129,0.319c-0.396,0.068-0.815-0.023-1.129-0.319l-6.214-5.883l-3.219-3.048
	c-0.253-0.32-0.94-0.881-0.917-1.752c0.021-0.783,0.696-1.388,1.206-1.926l2.962-2.804l6.214-5.883l-0.022-0.021
	c0.313-0.296,0.732-0.388,1.129-0.319c0.397-0.069,0.816,0.023,1.129,0.319C13.127,0.823,13.127,1.576,12.618,2.058z"/>
</svg>
