<svg xmlns="http://www.w3.org/2000/svg" width="44.812" height="35.188" viewBox="0 0 44.812 35.188">
  <metadata><?xpacket begin="﻿" id="W5M0MpCehiHzreSzNTczkc9d"?>
<x:xmpmeta xmlns:x="adobe:ns:meta/" x:xmptk="Adobe XMP Core 5.6-c140 79.160451, 2017/05/06-01:08:21        ">
   <rdf:RDF xmlns:rdf="http://www.w3.org/1999/02/22-rdf-syntax-ns#">
      <rdf:Description rdf:about=""/>
   </rdf:RDF>
</x:xmpmeta>

<?xpacket end="w"?></metadata>
<defs>
    <style>
      .cls-1 {
        fill: #ef4d94;
        fill-rule: evenodd;
      }
    </style>
  </defs>
  <path class="cls-1" d="M82.4,276.4H80.8v-4a4.012,4.012,0,0,0-4-4h-12v-4.8h1.6a4.012,4.012,0,0,0,4-4v-3.2a4.012,4.012,0,0,0-4-4H61.6a4.012,4.012,0,0,0-4,4v3.2a4.012,4.012,0,0,0,4,4h1.6v4.8h-12a4.012,4.012,0,0,0-4,4v4H45.6a4.012,4.012,0,0,0-4,4v3.2a4.012,4.012,0,0,0,4,4h4.8a4.012,4.012,0,0,0,4-4v-3.2a4.012,4.012,0,0,0-4-4H48.8v-4a2.407,2.407,0,0,1,2.4-2.4h12v6.4H61.6a4.012,4.012,0,0,0-4,4v3.2a4.012,4.012,0,0,0,4,4h4.8a4.012,4.012,0,0,0,4-4v-3.2a4.012,4.012,0,0,0-4-4H64.8V270h12a2.407,2.407,0,0,1,2.4,2.4v4H77.6a4.012,4.012,0,0,0-4,4v3.2a4.012,4.012,0,0,0,4,4h4.8a4.012,4.012,0,0,0,4-4v-3.2A4.012,4.012,0,0,0,82.4,276.4Zm-32,1.6a2.407,2.407,0,0,1,2.4,2.4v3.2a2.407,2.407,0,0,1-2.4,2.4H45.6a2.407,2.407,0,0,1-2.4-2.4v-3.2a2.407,2.407,0,0,1,2.4-2.4h4.8Zm16,0a2.407,2.407,0,0,1,2.4,2.4v3.2a2.407,2.407,0,0,1-2.4,2.4H61.6a2.407,2.407,0,0,1-2.4-2.4v-3.2a2.407,2.407,0,0,1,2.4-2.4h4.8Zm-4.8-16a2.407,2.407,0,0,1-2.4-2.4v-3.2a2.407,2.407,0,0,1,2.4-2.4h4.8a2.407,2.407,0,0,1,2.4,2.4v3.2a2.407,2.407,0,0,1-2.4,2.4H61.6Zm23.2,21.6a2.407,2.407,0,0,1-2.4,2.4H77.6a2.407,2.407,0,0,1-2.4-2.4v-3.2a2.407,2.407,0,0,1,2.4-2.4h4.8a2.407,2.407,0,0,1,2.4,2.4v3.2Z" transform="translate(-41.594 -252.406)"/>
</svg>
