<svg xmlns="http://www.w3.org/2000/svg" width="36.812" height="35" viewBox="0 0 36.812 35">
  <metadata><?xpacket begin="﻿" id="W5M0MpCehiHzreSzNTczkc9d"?>
<x:xmpmeta xmlns:x="adobe:ns:meta/" x:xmptk="Adobe XMP Core 5.6-c140 79.160451, 2017/05/06-01:08:21        ">
   <rdf:RDF xmlns:rdf="http://www.w3.org/1999/02/22-rdf-syntax-ns#">
      <rdf:Description rdf:about=""/>
   </rdf:RDF>
</x:xmpmeta>


<?xpacket end="w"?></metadata>
<defs>
    <style>
      .cls-1 {
        fill: #ef4d94;
        fill-rule: evenodd;
      }
    </style>
  </defs>
  <path class="cls-1" d="M51.4,1170.51H35a0.8,0.8,0,0,0,0,1.6H51.4A0.8,0.8,0,1,0,51.4,1170.51Zm-4,9.61H35a0.8,0.8,0,0,0,0,1.6H47.4A0.8,0.8,0,1,0,47.4,1180.12Zm3.2-4.81H35a0.805,0.805,0,0,0,0,1.61H50.6A0.805,0.805,0,0,0,50.6,1175.31Zm4.8,0H54.2a0.805,0.805,0,0,0,0,1.61h1.2A0.805,0.805,0,0,0,55.4,1175.31Zm4-12.81H30.6a4.012,4.012,0,0,0-4,4v19.23a4.012,4.012,0,0,0,4,4H43.52a2.308,2.308,0,0,1,1.48.52l9.12,7.09a0.769,0.769,0,0,0,.48.16,1.168,1.168,0,0,0,.36-0.08,0.756,0.756,0,0,0,.44-0.72v-6.97h4a4.012,4.012,0,0,0,4-4V1166.5A4.012,4.012,0,0,0,59.4,1162.5Zm2.4,23.23a2.407,2.407,0,0,1-2.4,2.4h-4v-2.4a0.8,0.8,0,1,0-1.6,0v9.33l-7.84-6.09a3.925,3.925,0,0,0-2.44-.84H30.6a2.407,2.407,0,0,1-2.4-2.4V1166.5a2.407,2.407,0,0,1,2.4-2.4H59.4a2.407,2.407,0,0,1,2.4,2.4v19.23Z" transform="translate(-26.594 -1162.5)"/>
</svg>
