<svg xmlns="http://www.w3.org/2000/svg" width="38.313" height="37.594" viewBox="0 0 38.313 37.594">
  <metadata><?xpacket begin="﻿" id="W5M0MpCehiHzreSzNTczkc9d"?>
<x:xmpmeta xmlns:x="adobe:ns:meta/" x:xmptk="Adobe XMP Core 5.6-c140 79.160451, 2017/05/06-01:08:21        ">
   <rdf:RDF xmlns:rdf="http://www.w3.org/1999/02/22-rdf-syntax-ns#">
      <rdf:Description rdf:about=""/>
   </rdf:RDF>
</x:xmpmeta>                                                                                                

<?xpacket end="w"?></metadata>
<defs>
    <style>
      .cls-1 {
        fill: #343434;
        fill-rule: evenodd;
      }
    </style>
  </defs>
  <path class="cls-1" d="M64.026,818.528l-3.055-21.937a3.889,3.889,0,0,0-3.878-3.369H53.45a8.327,8.327,0,0,0-8.3-7.835H44.558a8.291,8.291,0,0,0-8.265,7.835H32.727a3.893,3.893,0,0,0-3.878,3.369l-3.055,21.937a3.811,3.811,0,0,0,.9,3.094,3.923,3.923,0,0,0,2.977,1.332H60.148a3.878,3.878,0,0,0,2.938-1.371A3.75,3.75,0,0,0,64.026,818.528ZM44.558,786.954h0.588a6.759,6.759,0,0,1,6.738,6.268H37.859A6.723,6.723,0,0,1,44.558,786.954ZM61.911,820.6a2.355,2.355,0,0,1-1.763.823H29.672a2.294,2.294,0,0,1-1.763-.823,2.452,2.452,0,0,1-.548-1.88l0.078-.47H48.475a0.784,0.784,0,0,0,0-1.567H27.635l2.781-19.94a2.292,2.292,0,0,1,2.311-2h3.525v2.743a0.783,0.783,0,0,0,1.567,0v-2.743h14.1v2.743a0.783,0.783,0,0,0,1.567,0v-2.743h3.6a2.326,2.326,0,0,1,2.311,2.037l3.055,21.938A2.181,2.181,0,0,1,61.911,820.6ZM53.1,816.726H51.922a0.784,0.784,0,0,0,0,1.567H53.1A0.784,0.784,0,0,0,53.1,816.726Z" transform="translate(-25.75 -785.375)"/>
</svg>
