<svg xmlns="http://www.w3.org/2000/svg" width="30.843" height="29" viewBox="0 0 30.843 29"><defs><style>.cls-1{fill:#2c9c90;fill-rule:evenodd}</style></defs><path id="Forma_1" data-name="Forma 1" class="cls-1" d="M577.156 192.638a1.167 1.167 0 0 0 2.334 0v-19.11a4.423 4.423 0 1 0-2.306-.029v19.139h-.028zm-.882-23.379a2.078 2.078 0 1 1 2.077 2.077 2.089 2.089 0 0 1-2.077-2.077zm13.236-4.444a1.154 1.154 0 0 0-1.167 1.167v10.01a4.4 4.4 0 0 0 0 8.482v8.161a1.167 1.167 0 1 0 2.334 0v-8.161a4.421 4.421 0 0 0 0-8.539v-9.953a1.154 1.154 0 0 0-1.167-1.167zm2.135 15.418a2.078 2.078 0 1 1-2.078-2.077 2.089 2.089 0 0 1 2.078 2.077zm9.938 4.92v-19.139a1.167 1.167 0 0 0-2.334 0v19.139a4.412 4.412 0 1 0 2.334 0zm-1.138 6.318a2.078 2.078 0 1 1 2.078-2.077 2.089 2.089 0 0 1-2.078 2.077z" transform="translate(-573.969 -164.812)"/></svg>