<svg xmlns="http://www.w3.org/2000/svg" width="50.407" height="48.156" viewBox="0 0 50.407 48.156">
  <metadata><?xpacket begin="﻿" id="W5M0MpCehiHzreSzNTczkc9d"?>
<x:xmpmeta xmlns:x="adobe:ns:meta/" x:xmptk="Adobe XMP Core 5.6-c140 79.160451, 2017/05/06-01:08:21        ">
   <rdf:RDF xmlns:rdf="http://www.w3.org/1999/02/22-rdf-syntax-ns#">
      <rdf:Description rdf:about=""/>
   </rdf:RDF>
</x:xmpmeta>


<?xpacket end="w"?></metadata>
<defs>
    <style>
      .cls-1 {
        fill: #ef4d94;
        fill-rule: evenodd;
      }
    </style>
  </defs>
  <path class="cls-1" d="M342.6,599.342v-0.18l-2.762-12.431a6.034,6.034,0,0,0-5.883-4.743H307.418a6.034,6.034,0,0,0-5.883,4.743l-2.762,12.491a0.662,0.662,0,0,0,0,.48,6.008,6.008,0,0,0-3,5.224v12.01a5.665,5.665,0,0,0,2.461,4.5,2.6,2.6,0,0,0-.06.3v4.2a4.177,4.177,0,0,0,4.2,4.2h1.2a4.177,4.177,0,0,0,4.2-4.2v-3h26.414v3a4.177,4.177,0,0,0,4.2,4.2h1.2a4.176,4.176,0,0,0,4.2-4.2v-4.2a6,6,0,0,0,2.4-4.8v-12.07A6.1,6.1,0,0,0,342.6,599.342Zm-38.66-12.07a3.594,3.594,0,0,1,3.482-2.822h26.533a3.544,3.544,0,0,1,3.482,2.822l2.582,11.59h-38.66Zm1.441,38.612a1.769,1.769,0,0,1-1.8,1.8h-1.2a1.769,1.769,0,0,1-1.8-1.8v-3.3a6.3,6.3,0,0,0,1.8.3h3v3Zm36.018,0a1.768,1.768,0,0,1-1.8,1.8h-1.2a1.768,1.768,0,0,1-1.8-1.8v-3h3.6a7.386,7.386,0,0,0,1.2-.12v3.123Zm2.4-9.008a3.612,3.612,0,0,1-3.6,3.6h-37.82c-1.921,0-4.2-1.621-4.2-3.6v-12.01a3.614,3.614,0,0,1,3.6-3.6H340.2a3.613,3.613,0,0,1,3.6,3.6v12.01Zm-39.019-10.208a3.6,3.6,0,1,0,3.6,3.6A3.613,3.613,0,0,0,304.777,606.668Zm0,4.8a1.2,1.2,0,1,1,1.2-1.2A1.2,1.2,0,0,1,304.777,611.472Zm32.416-4.8a3.6,3.6,0,1,0,3.6,3.6A3.613,3.613,0,0,0,337.193,606.668Zm0,4.8a1.2,1.2,0,1,1,1.2-1.2A1.205,1.205,0,0,1,337.193,611.472Z" transform="translate(-295.781 -582)"/>
</svg>
