<svg xmlns="http://www.w3.org/2000/svg" width="24" height="34" viewBox="0 0 24 34">
  <metadata><?xpacket begin="﻿" id="W5M0MpCehiHzreSzNTczkc9d"?>
<x:xmpmeta xmlns:x="adobe:ns:meta/" x:xmptk="Adobe XMP Core 5.6-c140 79.160451, 2017/05/06-01:08:21        ">
   <rdf:RDF xmlns:rdf="http://www.w3.org/1999/02/22-rdf-syntax-ns#">
      <rdf:Description rdf:about=""/>
   </rdf:RDF>
</x:xmpmeta>
                                                                                                    
                                                                                                    
                                                                                                    
                                                                                                    
                                                                                                    
                                                                                                    
                                                                                                    
                                                                                                    
                                                                                                    
                                                                                                    
                                                                                                    
                                                                                                    
                                                                                                    
                                                                                                    
                                                                                                    
                                                                                                    
                                                                                                    
                                                                                                    
                                                                                                    
                                                                                                    
                           
<?xpacket end="w"?></metadata>
<defs>
    <style>
      .cls-1 {
        fill: #343434;
        fill-rule: evenodd;
      }
    </style>
  </defs>
  <path class="cls-1" d="M167,610a12.2,12.2,0,0,0-12,12.349c0,4.343,2.74,7.973,5.638,11.765,2.2,2.917,4.5,5.932,5.764,9.464a0.635,0.635,0,0,0,1.2,0c1.26-3.565,3.528-6.579,5.764-9.464,2.9-3.824,5.638-7.422,5.638-11.765A12.2,12.2,0,0,0,167,610Zm5.354,23.336a42.821,42.821,0,0,0-5.354,8.33,41.88,41.88,0,0,0-5.354-8.33c-2.772-3.63-5.386-7.065-5.386-10.987a10.744,10.744,0,1,1,21.48,0C177.74,626.271,175.126,629.706,172.354,633.336ZM167,615.25a7.1,7.1,0,1,1-6.875,7.094A6.987,6.987,0,0,1,167,615.25Zm0,1.219a5.877,5.877,0,1,1-5.719,5.875A5.8,5.8,0,0,1,167,616.469Z" transform="translate(-155 -610)"/>
</svg>
