<svg xmlns="http://www.w3.org/2000/svg" width="68.344" height="45.469" viewBox="0 0 68.344 45.469">
  <metadata><?xpacket begin="﻿" id="W5M0MpCehiHzreSzNTczkc9d"?>
<x:xmpmeta xmlns:x="adobe:ns:meta/" x:xmptk="Adobe XMP Core 5.6-c140 79.160451, 2017/05/06-01:08:21        ">
   <rdf:RDF xmlns:rdf="http://www.w3.org/1999/02/22-rdf-syntax-ns#">
      <rdf:Description rdf:about=""/>
   </rdf:RDF>
</x:xmpmeta>

<?xpacket end="w"?></metadata>
<defs>
    <style>
      .cls-1 {
        fill: #b0b0b0;
        fill-rule: evenodd;
      }
    </style>
  </defs>
  <path class="cls-1" d="M114.353,611.908h-4.136a1.2,1.2,0,1,0,0,2.393h4.136A1.2,1.2,0,1,0,114.353,611.908Zm31.773,1.2a1.2,1.2,0,0,0-1.2-1.2h-4.136V582a6.007,6.007,0,0,0-6-5.983H89.235A6.007,6.007,0,0,0,83.24,582v29.913h-4.2a1.2,1.2,0,0,0-1.2,1.2V615.5a6.006,6.006,0,0,0,5.995,5.983h56.352a6.007,6.007,0,0,0,6-5.983Zm-2.338,2.393a3.6,3.6,0,0,1-3.6,3.59H83.839a3.6,3.6,0,0,1-3.6-3.59v-1.2h24.04a1.2,1.2,0,1,0,0-2.393H85.638V582a3.6,3.6,0,0,1,3.6-3.59H134.8a3.6,3.6,0,0,1,3.6,3.59v29.913H120.408a1.2,1.2,0,1,0,0,2.393h23.38v1.2ZM136,607.72V582.593a1.765,1.765,0,0,0-1.8-1.795H89.834a1.765,1.765,0,0,0-1.8,1.795V607.72a1.765,1.765,0,0,0,1.8,1.795H134.2A1.765,1.765,0,0,0,136,607.72Zm-2.4-.6H90.434V583.191H133.6v23.931Z" transform="translate(-77.844 -576)"/>
</svg>
