<svg xmlns="http://www.w3.org/2000/svg" width="28.031" height="28.031" viewBox="0 0 28.031 28.031">
  <metadata><?xpacket begin="﻿" id="W5M0MpCehiHzreSzNTczkc9d"?>
<x:xmpmeta xmlns:x="adobe:ns:meta/" x:xmptk="Adobe XMP Core 5.6-c140 79.160451, 2017/05/06-01:08:21        ">
   <rdf:RDF xmlns:rdf="http://www.w3.org/1999/02/22-rdf-syntax-ns#">
      <rdf:Description rdf:about=""/>
   </rdf:RDF>
</x:xmpmeta>
                                                                                                    
                                                                                                    
                                                                                                    
                                                                                                    
                                                                                                    
                                                                                                    
                                                                                                    
                                                                                                    
                                                                                                    
                                                                                                    
                                                                                                    
                                                                                                    
                                                                                                    
                                                                                                    
                                                                                                    
                                                                                                    
                                                                                                    
                                                                                                    
                                                                                                    
                                                                                                    
                           
<?xpacket end="w"?></metadata>
<defs>
    <style>
      .cls-1 {
        fill: #343434;
        fill-rule: evenodd;
      }
    </style>
  </defs>
  <path class="cls-1" d="M180.993,861.542L177.455,858a3.462,3.462,0,0,0-4.881,0L155,875.574a3.462,3.462,0,0,0,0,4.881l3.538,3.538a3.462,3.462,0,0,0,4.881,0l17.57-17.57A3.46,3.46,0,0,0,180.993,861.542Zm-18.546,21.475a2.077,2.077,0,0,1-2.928,0l-3.539-3.538a2.078,2.078,0,0,1,0-2.929l17.57-17.57a2.078,2.078,0,0,1,2.929,0l3.538,3.538a2.076,2.076,0,0,1,0,2.929Zm14.154-18.79-4.149-4.149a0.69,0.69,0,0,0-.976.976l4.149,4.149A0.69,0.69,0,0,0,176.6,864.227Zm-4.271-.61-1.708-1.709a0.69,0.69,0,1,0-.976.976l1.708,1.709A0.69,0.69,0,1,0,172.33,863.617Zm-1.83,1.83-1.708-1.708a0.69,0.69,0,0,0-.976.976l1.708,1.708A0.69,0.69,0,0,0,170.5,865.447Zm-1.83,1.83-1.709-1.708a0.69,0.69,0,0,0-.976.976l1.709,1.708A0.69,0.69,0,1,0,168.67,867.277Zm0.61,4.271-4.149-4.149a0.69,0.69,0,1,0-.976.976l4.149,4.149A0.69,0.69,0,1,0,169.28,871.548Zm-4.271-.61-1.708-1.709a0.69,0.69,0,0,0-.976.976l1.708,1.709A0.69,0.69,0,0,0,165.009,870.938Zm-1.83,1.83-1.708-1.708a0.69,0.69,0,0,0-.976.976l1.708,1.708A0.69,0.69,0,1,0,163.179,872.768Zm-1.83,1.83-1.708-1.708a0.69,0.69,0,1,0-.977.976l1.709,1.708A0.69,0.69,0,1,0,161.349,874.6Zm0.61,4.271-4.149-4.149a0.69,0.69,0,0,0-.976.976l4.149,4.149A0.69,0.69,0,0,0,161.959,878.869Z" transform="translate(-154 -857)"/>
</svg>
