<svg xmlns="http://www.w3.org/2000/svg" width="27" height="26" viewBox="0 0 27 26"><defs><style>.cls-1{fill:#343434;fill-rule:evenodd}</style></defs><path class="cls-1" d="M26.961 9.877a.531.531 0 0 0-.4-.378l-8.19-1.946-4.4-7.263a.556.556 0 0 0-.977 0L8.626 7.524.437 9.47a.589.589 0 0 0-.4.378.549.549 0 0 0 .115.552l5.489 6.478-.661 8.483a.6.6 0 0 0 .23.523.535.535 0 0 0 .546.059l7.729-3.283 7.759 3.283a.537.537 0 0 0 .23.057.581.581 0 0 0 .575-.639l-.661-8.483 5.488-6.478a.553.553 0 0 0 .085-.523zm-6.609 6.449a.723.723 0 0 0-.143.436l.6 7.757-7.1-2.992a.533.533 0 0 0-.23-.058.667.667 0 0 0-.229.058l-7.1 2.992.6-7.757a.617.617 0 0 0-.143-.436L1.635 10.4l7.5-1.772a.679.679 0 0 0 .374-.262l3.994-6.652 4.023 6.652a.511.511 0 0 0 .345.262l7.5 1.772zM6.818 12.637l-.575-.7a.581.581 0 0 0-.8-.088.6.6 0 0 0-.087.814l.575.7a.553.553 0 0 0 .431.2.6.6 0 0 0 .374-.145.532.532 0 0 0 .082-.781zm1.063 1.22a.58.58 0 0 0-.805-.058.6.6 0 0 0-.057.813l.172.2a3.8 3.8 0 0 1 .891 2.789l-.143 1.83a.584.584 0 0 0 .517.639h.057a.59.59 0 0 0 .575-.523l.144-1.83a5.126 5.126 0 0 0-1.179-3.632z"/></svg>