<svg xmlns="http://www.w3.org/2000/svg" width="28" height="28" viewBox="0 0 28 28">
  <metadata><?xpacket begin="﻿" id="W5M0MpCehiHzreSzNTczkc9d"?>
<x:xmpmeta xmlns:x="adobe:ns:meta/" x:xmptk="Adobe XMP Core 5.6-c140 79.160451, 2017/05/06-01:08:21        ">
   <rdf:RDF xmlns:rdf="http://www.w3.org/1999/02/22-rdf-syntax-ns#">
      <rdf:Description rdf:about=""/>
   </rdf:RDF>
</x:xmpmeta>
                                                                                                    
                                                                                                    
                                                                                                    
                                                                                                    
                                                                                                    
                                                                                                    
                                                                                                    
                                                                                                    
                                                                                                    
                                                                                                    
                                                                                                    
                                                                                                    
                                                                                                    
                                                                                                    
                                                                                                    
                                                                                                    
                                                                                                    
                                                                                                    
                                                                                                    
                                                                                                    
                           
<?xpacket end="w"?></metadata>
<defs>
    <style>
      .cls-1 {
        fill: #343434;
        fill-rule: evenodd;
      }
    </style>
  </defs>
  <path class="cls-1" d="M178.222,941.976l-1.043,1.048a0.55,0.55,0,0,0,0,.794,0.543,0.543,0,0,0,.789,0l1.043-1.049a0.549,0.549,0,0,0,0-.793A0.542,0.542,0,0,0,178.222,941.976Zm-16.578,11.591a0.558,0.558,0,0,0,.395-0.17l0.62-.6a0.576,0.576,0,0,0,.029-0.793,0.543,0.543,0,0,0-.79,0l-0.62.595a0.576,0.576,0,0,0-.028.794A0.554,0.554,0,0,0,161.644,953.567ZM182,942.4a3.371,3.371,0,0,0-.987-2.409,3.391,3.391,0,0,0-4.793,0l-7.555,7.6-2.4-2.409a3.916,3.916,0,0,0-5.582,0l-0.4.4a1.731,1.731,0,0,0-.423,1.729l-5.385,3.74a1.149,1.149,0,0,0-.479.851,1.2,1.2,0,0,0,.31.906L168.1,966.66a1.182,1.182,0,0,0,.789.34H169a1.138,1.138,0,0,0,.846-0.482l3.637-5.356a1.551,1.551,0,0,0,.789.2,1.728,1.728,0,0,0,1.212-.51l0.4-.4a4.018,4.018,0,0,0-.028-5.611l-2.425-2.437,7.584-7.624A3.3,3.3,0,0,0,182,942.4Zm-13.11,23.437-3.609-3.656,1.382-1.389a0.55,0.55,0,0,0,0-.793,0.543,0.543,0,0,0-.79,0l-1.381,1.389-5.188-5.215,1.382-1.389a0.55,0.55,0,0,0,0-.793,0.543,0.543,0,0,0-.79,0l-1.381,1.389-3.411-3.43,5.413-3.741,12.1,12.158Zm11.334-21.85-7.979,8.02a0.55,0.55,0,0,0,0,.793l2.791,2.806a2.892,2.892,0,0,1,.028,4.024l-0.394.4a0.576,0.576,0,0,1-.818,0L161.081,947.19a0.028,0.028,0,0,0-.029-0.028,0.15,0.15,0,0,1-.056-0.085,0.564,0.564,0,0,1,.085-0.709l0.394-.4a2.764,2.764,0,0,1,2-.821,2.882,2.882,0,0,1,2,.821l2.791,2.806a0.542,0.542,0,0,0,.789,0l7.979-7.992a2.238,2.238,0,0,1,3.158,0,2.238,2.238,0,0,1,.648,1.587A2.12,2.12,0,0,1,180.224,943.988Z" transform="translate(-154 -939)"/>
</svg>
