<svg xmlns="http://www.w3.org/2000/svg" width="28" height="28" viewBox="0 0 28 28">
  <metadata><?xpacket begin="﻿" id="W5M0MpCehiHzreSzNTczkc9d"?>
<x:xmpmeta xmlns:x="adobe:ns:meta/" x:xmptk="Adobe XMP Core 5.6-c140 79.160451, 2017/05/06-01:08:21        ">
   <rdf:RDF xmlns:rdf="http://www.w3.org/1999/02/22-rdf-syntax-ns#">
      <rdf:Description rdf:about=""/>
   </rdf:RDF>
</x:xmpmeta>
                                                                                                    
                                                                                                    
                                                                                                    
                                                                                                    
                                                                                                    
                                                                                                    
                                                                                                    
                                                                                                    
                                                                                                    
                                                                                                    
                                                                                                    
                                                                                                    
                                                                                                    
                                                                                                    
                                                                                                    
                                                                                                    
                                                                                                    
                                                                                                    
                                                                                                    
                                                                                                    
                           
<?xpacket end="w"?></metadata>
<defs>
    <style>
      .cls-1 {
        fill: #343434;
        fill-rule: evenodd;
      }
    </style>
  </defs>
  <path class="cls-1" d="M171.141,461.17a0.565,0.565,0,0,0-.572.555v0.831a0.572,0.572,0,0,0,1.143,0v-0.831A0.565,0.565,0,0,0,171.141,461.17Zm8.341,0,2.429-5.932a1.094,1.094,0,0,0-.086-1.026,1.083,1.083,0,0,0-.943-0.5h-9.17v-0.555a2.824,2.824,0,0,0-2.857-2.772h-9.713v-0.832a0.572,0.572,0,0,0-1.143,0v26.337h-3.428a0.555,0.555,0,1,0,0,1.109h8a0.555,0.555,0,1,0,0-1.109h-3.428V464.774h8.028v0.555a2.823,2.823,0,0,0,2.856,2.772h10.828a1.111,1.111,0,0,0,.942-0.5,1.009,1.009,0,0,0,.086-1.054Zm-9.456,5.822a1.7,1.7,0,0,1-1.714-1.663V464.22a0.565,0.565,0,0,0-.571-0.555,0.263,0.263,0,0,0-.143.028c-0.057,0-.085-0.028-0.143-0.028h-8.313v-12.2h9.713a1.694,1.694,0,0,1,1.714,1.664v6.1a0.572,0.572,0,0,0,1.143,0v-4.436h9.142v0.028l-2.514,6.154a0.527,0.527,0,0,0,0,.416l2.514,5.6H170.026Z" transform="translate(-154 -449)"/>
</svg>
