<svg xmlns="http://www.w3.org/2000/svg" width="25.719" height="27.594" viewBox="0 0 25.719 27.594">
  <metadata><?xpacket begin="﻿" id="W5M0MpCehiHzreSzNTczkc9d"?>
<x:xmpmeta xmlns:x="adobe:ns:meta/" x:xmptk="Adobe XMP Core 5.6-c140 79.160451, 2017/05/06-01:08:21        ">
   <rdf:RDF xmlns:rdf="http://www.w3.org/1999/02/22-rdf-syntax-ns#">
      <rdf:Description rdf:about=""/>
   </rdf:RDF>
</x:xmpmeta>
                                                                                                    
                                                                                                    
                                                                                                    
                                                                                                    
                                                                                                    
                                                                                                    
                                                                                                    
                                                                                                    
                                                                                                    
                                                                                                    
                                                                                                    
                                                                                                    
                                                                                                    
                                                                                                    
                                                                                                    
                                                                                                    
                                                                                                    
                                                                                                    
                                                                                                    
                                                                                                    
                           
<?xpacket end="w"?></metadata>
<defs>
    <style>
      .cls-1 {
        fill: #343434;
        fill-rule: evenodd;
      }
    </style>
  </defs>
  <path id="Shape_1_копия_6" data-name="Shape 1 копия 6" class="cls-1" d="M180.675,245.615v-3.183l1.169-.159v3.5a2.931,2.931,0,0,1-2.923,2.922h-5.865a2.931,2.931,0,0,1-2.922-2.922v-3.5l1.169,0.159v3.183l0,0.159a1.757,1.757,0,0,0,1.753,1.753h5.86a1.758,1.758,0,0,0,1.753-1.753Zm-9.372-3.183v-0.159m9.372,0v0.159M171.3,239.46v4.415l-1.169.16V239.3a2.931,2.931,0,0,1,2.922-2.922h5.865a2.931,2.931,0,0,1,2.923,2.922v4.734l-1.169-.16V239.46l0-.159a1.758,1.758,0,0,0-1.753-1.753h-5.86a1.758,1.758,0,0,0-1.753,1.753Zm0,4.415v0.16m9.372,0v-0.16m0-13.544v-3.184l1.169-.159v3.5a2.931,2.931,0,0,1-2.923,2.922h-5.865a2.931,2.931,0,0,1-2.922-2.922v-3.5l1.169,0.159v3.184l0,0.159a1.758,1.758,0,0,0,1.753,1.753h5.86a1.758,1.758,0,0,0,1.753-1.753Zm-9.372-3.184v-0.159m9.372,0v0.159m-9.372-2.971v4.415l-1.169.159v-4.733a2.931,2.931,0,0,1,2.922-2.923h5.865a2.931,2.931,0,0,1,2.923,2.923v4.733l-1.169-.159v-4.415l0-.159a1.759,1.759,0,0,0-1.753-1.754h-5.86a1.758,1.758,0,0,0-1.753,1.754Zm0,4.415v0.159m9.372,0v-0.159m-13.941,17.024v-3.183l1.169-.159v3.5a2.931,2.931,0,0,1-2.922,2.922h-5.923a2.931,2.931,0,0,1-2.922-2.922v-3.5l1.169,0.159v3.183l0,0.159a1.758,1.758,0,0,0,1.753,1.753h5.917a1.758,1.758,0,0,0,1.753-1.753Zm-9.429-3.183v-0.159m9.429,0v0.159m-9.429-2.972v4.415l-1.169.16V239.3a2.931,2.931,0,0,1,2.922-2.922h5.923A2.931,2.931,0,0,1,167.9,239.3v4.734l-1.169-.16V239.46l0-.159a1.758,1.758,0,0,0-1.753-1.753h-5.917a1.758,1.758,0,0,0-1.753,1.753Zm0,4.415v0.16m9.429,0v-0.16m0-13.544v-3.184l1.169-.159v3.5a2.931,2.931,0,0,1-2.922,2.922h-5.923a2.931,2.931,0,0,1-2.922-2.922v-3.5l1.169,0.159v3.184l0,0.159a1.758,1.758,0,0,0,1.753,1.753h5.917a1.758,1.758,0,0,0,1.753-1.753Zm-9.429-3.184v-0.159m9.429,0v0.159m-9.429-2.971v4.415l-1.169.159v-4.733a2.931,2.931,0,0,1,2.922-2.923h5.923a2.931,2.931,0,0,1,2.922,2.923v4.733l-1.169-.159v-4.415l0-.159a1.759,1.759,0,0,0-1.753-1.754h-5.917a1.759,1.759,0,0,0-1.753,1.754Zm0,4.415v0.159m9.429,0v-0.159" transform="translate(-156.125 -221.094)"/>
</svg>
