<svg xmlns="http://www.w3.org/2000/svg" width="30.5" height="42" viewBox="0 0 30.5 42">
  <metadata><?xpacket begin="﻿" id="W5M0MpCehiHzreSzNTczkc9d"?>
<x:xmpmeta xmlns:x="adobe:ns:meta/" x:xmptk="Adobe XMP Core 5.6-c140 79.160451, 2017/05/06-01:08:21        ">
   <rdf:RDF xmlns:rdf="http://www.w3.org/1999/02/22-rdf-syntax-ns#">
      <rdf:Description rdf:about=""/>
   </rdf:RDF>
</x:xmpmeta>
                         
<?xpacket end="w"?></metadata>
<defs>
    <style>
      .cls-1 {
        fill: #343434;
        fill-rule: evenodd;
      }
    </style>
  </defs>
  <path class="cls-1" d="M45.5,1063a15.275,15.275,0,0,0-15.25,15.25c0,5.37,3.482,9.85,7.165,14.54,2.8,3.6,5.724,7.33,7.325,11.69a0.816,0.816,0,0,0,1.521,0c1.6-4.4,4.483-8.13,7.325-11.69,3.682-4.73,7.165-9.17,7.165-14.54A15.275,15.275,0,0,0,45.5,1063Zm6.8,28.83c-2.482,3.2-5.083,6.48-6.8,10.29a51.275,51.275,0,0,0-6.8-10.29c-3.522-4.49-6.844-8.73-6.844-13.58a13.649,13.649,0,1,1,27.3,0C59.149,1083.1,55.827,1087.34,52.3,1091.83Zm1.241-17.1-4.763-1.16-2.562-4.16a0.779,0.779,0,0,0-1.361,0l-2.522,4.16-4.763,1.16a0.815,0.815,0,0,0-.56.52,0.746,0.746,0,0,0,.16.76l3.162,3.69-0.4,4.88a0.736,0.736,0,0,0,.32.72,0.752,0.752,0,0,0,.761.08l4.483-1.88,4.523,1.88a1.235,1.235,0,0,0,.36.04,0.769,0.769,0,0,0,.48-0.16,0.736,0.736,0,0,0,.32-0.72l-0.4-4.88,3.162-3.69a0.765,0.765,0,0,0,.16-0.76A0.7,0.7,0,0,0,53.545,1074.73Zm-4.2,4.17a0.785,0.785,0,0,0-.2.6l0.32,3.88-3.6-1.48a0.755,0.755,0,0,0-.32-0.08,0.943,0.943,0,0,0-.32.08l-3.6,1.48,0.32-3.88a0.841,0.841,0,0,0-.2-0.6l-2.562-2.93,3.883-.96a0.745,0.745,0,0,0,.48-0.36l2-3.32,2.041,3.32a0.714,0.714,0,0,0,.48.36l3.8,0.92Z" transform="translate(-30.25 -1063)"/>
</svg>
