<svg xmlns="http://www.w3.org/2000/svg" width="48.563" height="63.562" viewBox="0 0 48.563 63.562">
  <metadata><?xpacket begin="﻿" id="W5M0MpCehiHzreSzNTczkc9d"?>
<x:xmpmeta xmlns:x="adobe:ns:meta/" x:xmptk="Adobe XMP Core 5.6-c140 79.160451, 2017/05/06-01:08:21        ">
   <rdf:RDF xmlns:rdf="http://www.w3.org/1999/02/22-rdf-syntax-ns#">
      <rdf:Description rdf:about=""/>
   </rdf:RDF>
</x:xmpmeta>
                                                                                                    
                                                                                                    
                                                                                                    
                                                                                                    
                                                                                                    
                                                                                                    
                                                                                                    
                                                                                                    
                                                                                                    
                                                                                                    
                                                                                                    
                                                                                                    
                                                                                                    
                                                                                                    
                                                                                                    
                                                                                                    
                                                                                                    
                                                                                                    
                                                                                                    
                                                                                                    
                           
<?xpacket end="w"?></metadata>
<defs>
    <style>
      .cls-1 {
        fill: #2c9c90;
        fill-rule: evenodd;
      }
    </style>
  </defs>
  <path class="cls-1" d="M550.574,603.206a1.172,1.172,0,0,0-1.139-.779H531.016L546.855,577.9a1.272,1.272,0,0,0-.18-1.559,1.186,1.186,0,0,0-1.56-.06l-42.6,33.588a1.232,1.232,0,0,0-.42,1.32,1.121,1.121,0,0,0,1.14.779h17.639l-16.259,25.731a1.21,1.21,0,0,0,.24,1.56,1.413,1.413,0,0,0,.78.3,1.048,1.048,0,0,0,.72-0.24l43.8-34.788A1.139,1.139,0,0,0,550.574,603.206Zm-40.135,29.87,13.618-21.652a1.226,1.226,0,0,0,.06-1.2,1.26,1.26,0,0,0-1.08-.6H506.719l34.2-26.99-13.138,20.333a1.224,1.224,0,0,0-.06,1.2,1.189,1.189,0,0,0,1.08.6h17.218Z" transform="translate(-502.062 -576)"/>
</svg>
