<svg xmlns="http://www.w3.org/2000/svg" width="44.812" height="35.188" viewBox="0 0 44.812 35.188"><defs><style>.cls-1{fill:#ef4d94;fill-rule:evenodd}</style></defs><path class="cls-1" d="M40.806 23.994h-1.6v-4a4.012 4.012 0 0 0-4-4h-12v-4.8h1.6a4.012 4.012 0 0 0 4-4v-3.2a4.012 4.012 0 0 0-4-4h-4.8a4.012 4.012 0 0 0-4 4v3.2a4.012 4.012 0 0 0 4 4h1.6v4.8h-12a4.012 4.012 0 0 0-4 4v4h-1.6a4.012 4.012 0 0 0-4 4v3.2a4.012 4.012 0 0 0 4 4h4.8a4.012 4.012 0 0 0 4-4v-3.2a4.012 4.012 0 0 0-4-4h-1.6v-4a2.407 2.407 0 0 1 2.4-2.4h12v6.4h-1.6a4.012 4.012 0 0 0-4 4v3.2a4.012 4.012 0 0 0 4 4h4.8a4.012 4.012 0 0 0 4-4v-3.2a4.012 4.012 0 0 0-4-4h-1.6v-6.4h12a2.407 2.407 0 0 1 2.4 2.4v4h-1.6a4.012 4.012 0 0 0-4 4v3.2a4.012 4.012 0 0 0 4 4h4.8a4.012 4.012 0 0 0 4-4v-3.2a4.012 4.012 0 0 0-4-4zm-32 1.6a2.407 2.407 0 0 1 2.4 2.4v3.2a2.407 2.407 0 0 1-2.4 2.4h-4.8a2.407 2.407 0 0 1-2.4-2.4v-3.2a2.407 2.407 0 0 1 2.4-2.4h4.8zm16 0a2.407 2.407 0 0 1 2.4 2.4v3.2a2.407 2.407 0 0 1-2.4 2.4h-4.8a2.407 2.407 0 0 1-2.4-2.4v-3.2a2.407 2.407 0 0 1 2.4-2.4h4.8zm-4.8-16a2.407 2.407 0 0 1-2.4-2.4v-3.2a2.407 2.407 0 0 1 2.4-2.4h4.8a2.407 2.407 0 0 1 2.4 2.4v3.2a2.407 2.407 0 0 1-2.4 2.4h-4.8zm23.2 21.6a2.407 2.407 0 0 1-2.4 2.4h-4.8a2.407 2.407 0 0 1-2.4-2.4v-3.2a2.407 2.407 0 0 1 2.4-2.4h4.8a2.407 2.407 0 0 1 2.4 2.4v3.2z"/></svg>