<svg xmlns="http://www.w3.org/2000/svg" width="30.843" height="29" viewBox="0 0 30.843 29">
  <metadata><?xpacket begin="﻿" id="W5M0MpCehiHzreSzNTczkc9d"?>
<x:xmpmeta xmlns:x="adobe:ns:meta/" x:xmptk="Adobe XMP Core 5.6-c140 79.160451, 2017/05/06-01:08:21        ">
   <rdf:RDF xmlns:rdf="http://www.w3.org/1999/02/22-rdf-syntax-ns#">
      <rdf:Description rdf:about=""/>
   </rdf:RDF>
</x:xmpmeta>
                                                                                                    
                                                                                                    
                                                                                                    
                                                                                                    
                                                                                                    
                                                                                                    
                                                                                                    
                                                                                                    
                                                                                                    
                                                                                                    
                                                                                                    
                                                                                                    
                                                                                                    
                                                                                                    
                                                                                                    
                                                                                                    
                                                                                                    
                                                                                                    
                                                                                                    
                                                                                                    
                           
<?xpacket end="w"?></metadata>
<defs>
    <style>
      .cls-1 {
        fill: #2c9c90;
        fill-rule: evenodd;
      }
    </style>
  </defs>
  <path id="Forma_1" data-name="Forma 1" class="cls-1" d="M577.156,192.638a1.167,1.167,0,0,0,2.334,0v-19.11a4.423,4.423,0,1,0-2.306-.029v19.139h-0.028Zm-0.882-23.379a2.078,2.078,0,1,1,2.077,2.077A2.089,2.089,0,0,1,576.274,169.259Zm13.236-4.444a1.154,1.154,0,0,0-1.167,1.167v10.01a4.4,4.4,0,0,0,0,8.482v8.161a1.167,1.167,0,1,0,2.334,0v-8.161a4.421,4.421,0,0,0,0-8.539v-9.953A1.154,1.154,0,0,0,589.51,164.815Zm2.135,15.418a2.078,2.078,0,1,1-2.078-2.077A2.089,2.089,0,0,1,591.645,180.233Zm9.938,4.92V166.014a1.167,1.167,0,0,0-2.334,0v19.139A4.412,4.412,0,1,0,601.583,185.153Zm-1.138,6.318a2.078,2.078,0,1,1,2.078-2.077A2.089,2.089,0,0,1,600.445,191.471Z" transform="translate(-573.969 -164.812)"/>
</svg>
