<svg xmlns="http://www.w3.org/2000/svg" width="25.937" height="25.81" viewBox="0 0 25.937 25.81">
  <metadata><?xpacket begin="﻿" id="W5M0MpCehiHzreSzNTczkc9d"?>
<x:xmpmeta xmlns:x="adobe:ns:meta/" x:xmptk="Adobe XMP Core 5.6-c140 79.160451, 2017/05/06-01:08:21        ">
   <rdf:RDF xmlns:rdf="http://www.w3.org/1999/02/22-rdf-syntax-ns#">
      <rdf:Description rdf:about=""/>
   </rdf:RDF>
</x:xmpmeta>
                                                                                                    
                                                                                                    
                                                                                                    
                                                                                                    
                                                                                                    
                                                                                                    
                                                                                                    
                                                                                                    
                                                                                                    
                                                                                                    
                                                                                                    
                                                                                                    
                                                                                                    
                                                                                                    
                                                                                                    
                                                                                                    
                                                                                                    
                                                                                                    
                                                                                                    
                                                                                                    
                           
<?xpacket end="w"?></metadata>
<defs>
    <style>
      .cls-1 {
        fill: #343434;
        fill-rule: evenodd;
      }
    </style>
  </defs>
  <path class="cls-1" d="M173.587,1206.83a2.985,2.985,0,1,0,2.984,2.99A3,3,0,0,0,173.587,1206.83Zm0,4.78a1.79,1.79,0,1,1,1.79-1.79A1.8,1.8,0,0,1,173.587,1211.61Zm3.58-8.33h-8.056a2.829,2.829,0,0,0-2.089.87l-11.966,11.91a2.974,2.974,0,0,0,0,4.21l8,7.97a3.039,3.039,0,0,0,4.237,0l11.966-11.97a2.864,2.864,0,0,0,.9-2.06v-7.94A2.992,2.992,0,0,0,177.167,1203.28Zm1.791,10.93a1.552,1.552,0,0,1-.537,1.19l-12,12a1.8,1.8,0,0,1-2.507,0l-8.027-7.97a1.825,1.825,0,0,1,0-2.54l11.966-11.91a1.747,1.747,0,0,1,1.254-.5h8.056a1.792,1.792,0,0,1,1.791,1.79v7.94h0Z" transform="translate(-154.219 -1203.28)"/>
</svg>
