<svg xmlns="http://www.w3.org/2000/svg" width="15.688" height="25.187" viewBox="0 0 15.688 25.187"><defs><style>.cls-1{fill:#343434;fill-rule:evenodd}</style></defs><path class="cls-1" d="M12.884-.012H2.804a2.809 2.809 0 0 0-2.8 2.8v21.268a1.17 1.17 0 0 0 .616 1.009 1.1 1.1 0 0 0 .5.112 1.139 1.139 0 0 0 .672-.224l6.052-4.654 6.048 4.651a1.114 1.114 0 0 0 1.792-.9V2.789a2.809 2.809 0 0 0-2.8-2.801zm1.68 24.065l-6.02-4.65a1.057 1.057 0 0 0-1.372 0l-6.048 4.65V2.789a1.685 1.685 0 0 1 1.68-1.68h.56v7a.56.56 0 1 0 1.12 0v-7h8.4a1.685 1.685 0 0 1 1.68 1.68v21.267zm-10.64-13.98a.563.563 0 0 0-.56.561v.84a.56.56 0 0 0 1.12 0v-.84a.563.563 0 0 0-.56-.561z"/></svg>