<svg xmlns="http://www.w3.org/2000/svg" width="36.812" height="33.875" viewBox="0 0 36.812 33.875">
  <metadata><?xpacket begin="﻿" id="W5M0MpCehiHzreSzNTczkc9d"?>
<x:xmpmeta xmlns:x="adobe:ns:meta/" x:xmptk="Adobe XMP Core 5.6-c140 79.160451, 2017/05/06-01:08:21        ">
   <rdf:RDF xmlns:rdf="http://www.w3.org/1999/02/22-rdf-syntax-ns#">
      <rdf:Description rdf:about=""/>
   </rdf:RDF>
</x:xmpmeta>


<?xpacket end="w"?></metadata>
<defs>
    <style>
      .cls-1 {
        fill: #ef4d94;
        fill-rule: evenodd;
      }
    </style>
  </defs>
  <path class="cls-1" d="M55.888,882.285a8.5,8.5,0,0,0-9.67,2.72,1.65,1.65,0,0,1-2.477,0,8.5,8.5,0,0,0-9.669-2.72c-4.475,1.68-7.472,6.4-7.472,11.76,0,8.28,6.833,13.6,13.466,18.72,0.879,0.68,1.8,1.36,2.677,2.08a3.6,3.6,0,0,0,2.238.76,3.716,3.716,0,0,0,2.278-.76c0.879-.72,1.8-1.4,2.717-2.12,6.593-5.12,13.426-10.4,13.426-18.68C63.36,888.645,60.363,883.925,55.888,882.285Zm-6.912,29.16c-0.919.72-1.838,1.4-2.717,2.12a2.1,2.1,0,0,1-2.517,0c-0.879-.68-1.758-1.4-2.677-2.08-6.313-4.88-12.866-9.961-12.866-17.44,0-5.44,3.236-9.08,6.433-10.24a6.975,6.975,0,0,1,2.477-.48,7.077,7.077,0,0,1,5.434,2.72,3.192,3.192,0,0,0,2.437,1.119,3.131,3.131,0,0,0,2.437-1.119,6.885,6.885,0,0,1,7.912-2.28c3.2,1.16,6.433,4.8,6.433,10.28C61.762,901.564,55.529,906.364,48.976,911.445Zm-15.943-17.52a3.66,3.66,0,0,1-.04-0.68,0.8,0.8,0,1,0-1.6,0,7.739,7.739,0,0,0,.04.92,0.783,0.783,0,0,0,.8.68h0.12A0.84,0.84,0,0,0,33.033,893.925Zm7.592,10.4a20.455,20.455,0,0,1-6.393-6.72,0.8,0.8,0,1,0-1.4.76,21.687,21.687,0,0,0,6.873,7.28,0.8,0.8,0,0,0,.44.12,0.834,0.834,0,0,0,.679-0.361A0.744,0.744,0,0,0,40.625,904.325Z" transform="translate(-26.594 -881.719)"/>
</svg>
