<svg xmlns="http://www.w3.org/2000/svg" width="38.313" height="37.594" viewBox="0 0 38.313 37.594"><defs><style>.cls-1{fill:#ef4d94;fill-rule:evenodd}</style></defs><path class="cls-1" d="M38.276 33.153l-3.055-21.937a3.889 3.889 0 0 0-3.878-3.369H27.7A8.327 8.327 0 0 0 19.4.012h-.592a8.291 8.291 0 0 0-8.265 7.835H6.977a3.893 3.893 0 0 0-3.878 3.369L.044 33.153a3.811 3.811 0 0 0 .9 3.094 3.923 3.923 0 0 0 2.977 1.332h30.477a3.878 3.878 0 0 0 2.938-1.371 3.75 3.75 0 0 0 .94-3.055zM18.808 1.579h.588a6.759 6.759 0 0 1 6.738 6.268H12.109a6.723 6.723 0 0 1 6.699-6.268zm17.353 33.646a2.355 2.355 0 0 1-1.763.823H3.922a2.294 2.294 0 0 1-1.763-.823 2.452 2.452 0 0 1-.548-1.88l.078-.47h21.036a.784.784 0 0 0 0-1.567H1.885l2.781-19.94a2.292 2.292 0 0 1 2.311-2h3.525v2.743a.784.784 0 0 0 1.567 0V9.368h14.1v2.743a.784.784 0 0 0 1.567 0V9.368h3.6a2.326 2.326 0 0 1 2.311 2.037l3.055 21.938a2.181 2.181 0 0 1-.541 1.882zm-8.811-3.874h-1.178a.784.784 0 0 0 0 1.567h1.178a.784.784 0 0 0 0-1.567z"/></svg>