<svg xmlns="http://www.w3.org/2000/svg" width="28.031" height="28" viewBox="0 0 28.031 28">
  <metadata><?xpacket begin="﻿" id="W5M0MpCehiHzreSzNTczkc9d"?>
<x:xmpmeta xmlns:x="adobe:ns:meta/" x:xmptk="Adobe XMP Core 5.6-c140 79.160451, 2017/05/06-01:08:21        ">
   <rdf:RDF xmlns:rdf="http://www.w3.org/1999/02/22-rdf-syntax-ns#">
      <rdf:Description rdf:about=""/>
   </rdf:RDF>
</x:xmpmeta>
                                                                                                    
                                                                                                    
                                                                                                    
                                                                                                    
                                                                                                    
                                                                                                    
                                                                                                    
                                                                                                    
                                                                                                    
                                                                                                    
                                                                                                    
                                                                                                    
                                                                                                    
                                                                                                    
                                                                                                    
                                                                                                    
                                                                                                    
                                                                                                    
                                                                                                    
                                                                                                    
                           
<?xpacket end="w"?></metadata>
<defs>
    <style>
      .cls-1 {
        fill: #343434;
        fill-rule: evenodd;
      }
    </style>
  </defs>
  <path class="cls-1" d="M180.8,328.288h-4.45c0.609-.517,1.249-1.1,1.554-1.4a14.039,14.039,0,0,0-7.072-23.642,0.61,0.61,0,1,0-.274,1.189,12.823,12.823,0,0,1,6.462,21.6c-0.335.335-1.1,1.036-1.737,1.554v-4.783a0.61,0.61,0,0,0-1.22,0V328.9a0.612,0.612,0,0,0,.61.609h6.1a0.611,0.611,0,0,0,.609-0.609A0.586,0.586,0,0,0,180.8,328.288Zm-11.34,1.4a12.79,12.79,0,0,1-10.517-21.753,12.018,12.018,0,0,1,2.957-2.193v4.874a0.61,0.61,0,1,0,1.219,0v-6.093a0.611,0.611,0,0,0-.609-0.609h-6.1a0.609,0.609,0,1,0,0,1.218h4.115a14.653,14.653,0,0,0-2.439,1.95A14.015,14.015,0,0,0,167.968,331a15.118,15.118,0,0,0,1.646-.091,0.615,0.615,0,0,0,.549-0.671A0.663,0.663,0,0,0,169.462,329.69Zm-3.323-25.378H166.2l0.915-.092a0.612,0.612,0,1,0-.122-1.218l-0.915.091a0.614,0.614,0,0,0-.548.67A0.623,0.623,0,0,0,166.139,304.312Z" transform="translate(-154 -303)"/>
</svg>
