<svg xmlns="http://www.w3.org/2000/svg" width="27" height="25" viewBox="0 0 27 25">
  <metadata><?xpacket begin="﻿" id="W5M0MpCehiHzreSzNTczkc9d"?>
<x:xmpmeta xmlns:x="adobe:ns:meta/" x:xmptk="Adobe XMP Core 5.6-c140 79.160451, 2017/05/06-01:08:21        ">
   <rdf:RDF xmlns:rdf="http://www.w3.org/1999/02/22-rdf-syntax-ns#">
      <rdf:Description rdf:about=""/>
   </rdf:RDF>
</x:xmpmeta>
                                                                                                    
                                                                                                    
                                                                                                    
                                                                                                    
                                                                                                    
                                                                                                    
                                                                                                    
                                                                                                    
                                                                                                    
                                                                                                    
                                                                                                    
                                                                                                    
                                                                                                    
                                                                                                    
                                                                                                    
                                                                                                    
                                                                                                    
                                                                                                    
                                                                                                    
                                                                                                    
                           
<?xpacket end="w"?></metadata>
<defs>
    <style>
      .cls-1 {
        fill: #343434;
        fill-rule: evenodd;
      }
    </style>
  </defs>
  <path id="Shape_1_копия" data-name="Shape 1 копия" class="cls-1" d="M175.492,467.4a6.218,6.218,0,0,0-7.1,2.007,1.207,1.207,0,0,1-1.818,0,6.217,6.217,0,0,0-7.1-2.007A9.09,9.09,0,0,0,154,476.081c0,6.109,5.015,10.034,9.883,13.812,0.645,0.5,1.32,1,1.965,1.534a2.634,2.634,0,0,0,1.642.561,2.717,2.717,0,0,0,1.672-.561c0.645-.531,1.32-1.033,1.994-1.564,4.839-3.777,9.854-7.673,9.854-13.782C180.976,472.1,178.776,468.614,175.492,467.4Zm-5.074,21.515c-0.675.531-1.349,1.033-1.994,1.564a1.533,1.533,0,0,1-1.848,0c-0.645-.5-1.29-1.033-1.965-1.535-4.634-3.6-9.443-7.348-9.443-12.867a7.821,7.821,0,0,1,4.721-7.555,5.1,5.1,0,0,1,1.819-.355,5.184,5.184,0,0,1,3.988,2.007,2.341,2.341,0,0,0,1.789.827,2.3,2.3,0,0,0,1.789-.827,5.039,5.039,0,0,1,5.807-1.682,7.838,7.838,0,0,1,4.722,7.585C179.8,481.629,175.228,485.171,170.418,488.919Zm-11.7-12.927a2.737,2.737,0,0,1-.029-0.5,0.587,0.587,0,1,0-1.173,0,5.783,5.783,0,0,0,.029.678,0.577,0.577,0,0,0,.587.5h0.088A0.618,0.618,0,0,0,158.716,475.992Zm5.573,7.674a15.064,15.064,0,0,1-4.693-4.959,0.584,0.584,0,0,0-.792-0.236,0.591,0.591,0,0,0-.234.8,15.948,15.948,0,0,0,5.044,5.371,0.589,0.589,0,0,0,.323.089,0.611,0.611,0,0,0,.5-0.266A0.551,0.551,0,0,0,164.289,483.666Z" transform="translate(-154 -467)"/>
</svg>
