<svg xmlns="http://www.w3.org/2000/svg" width="58" height="55" viewBox="0 0 58 55">
  <metadata><?xpacket begin="﻿" id="W5M0MpCehiHzreSzNTczkc9d"?>
<x:xmpmeta xmlns:x="adobe:ns:meta/" x:xmptk="Adobe XMP Core 5.6-c140 79.160451, 2017/05/06-01:08:21        ">
   <rdf:RDF xmlns:rdf="http://www.w3.org/1999/02/22-rdf-syntax-ns#">
      <rdf:Description rdf:about=""/>
   </rdf:RDF>
</x:xmpmeta>

<?xpacket end="w"?></metadata>
<defs>
    <style>
      .cls-1 {
        fill: #b0b0b0;
        fill-rule: evenodd;
      }
    </style>
  </defs>
  <path class="cls-1" d="M550.948,376.169h-6.039v-3.588a3.624,3.624,0,0,0-7.247,0v3.588H518.337v-3.588a3.623,3.623,0,0,0-7.246,0v3.588h-6.039a6.027,6.027,0,0,0-6.039,5.98v7.175a3.565,3.565,0,0,0,2.415,3.349v25.353c0,3.409,3.5,5.98,6.643,5.98h40.462a6.028,6.028,0,0,0,6.039-5.98V392.733a3.619,3.619,0,0,0,2.415-3.409v-7.175A6.027,6.027,0,0,0,550.948,376.169Zm-10.87-3.588a1.208,1.208,0,0,1,2.416,0v9.568a1.208,1.208,0,0,1-2.416,0v-9.568Zm-26.572,0a1.208,1.208,0,0,1,2.416,0v9.568a1.208,1.208,0,0,1-2.416,0v-9.568Zm41.066,16.743a1.234,1.234,0,0,1-.967,1.2,0.059,0.059,0,0,0-.06.06h-0.181a1.206,1.206,0,0,0-1.208,1.2v26.31a3.616,3.616,0,0,1-3.623,3.588H508.071c-1.932,0-4.227-1.614-4.227-3.588V392.912h36.234a1.2,1.2,0,1,0,0-2.392H502.636a1.206,1.206,0,0,1-1.208-1.2v-7.175a3.617,3.617,0,0,1,3.624-3.588h6.039v3.588a3.623,3.623,0,0,0,7.246,0v-3.588h19.325v3.588a3.624,3.624,0,0,0,7.247,0v-3.588h6.039a3.617,3.617,0,0,1,3.624,3.588v7.175Zm-7.247,1.2h-1.812a1.2,1.2,0,1,0,0,2.392h1.812A1.2,1.2,0,1,0,547.325,390.52Zm-30.2,9.568h-7.247a1.2,1.2,0,1,0,0,2.391h7.247A1.2,1.2,0,1,0,517.13,400.088Zm0,9.567h-7.247a1.2,1.2,0,1,0,0,2.392h7.247A1.2,1.2,0,1,0,517.13,409.655Zm13.889-9.567h-7.246a1.2,1.2,0,1,0,0,2.391h7.246A1.2,1.2,0,1,0,531.019,400.088Zm0,9.567h-7.246a1.2,1.2,0,1,0,0,2.392h7.246A1.2,1.2,0,1,0,531.019,409.655Zm13.89-9.567h-7.247a1.2,1.2,0,1,0,0,2.391h7.247A1.2,1.2,0,1,0,544.909,400.088Zm0,9.567h-7.247a1.2,1.2,0,1,0,0,2.392h7.247A1.2,1.2,0,1,0,544.909,409.655Z" transform="translate(-499 -369)"/>
</svg>
