<svg xmlns="http://www.w3.org/2000/svg" width="15.688" height="25.187" viewBox="0 0 15.688 25.187">
  <metadata><?xpacket begin="﻿" id="W5M0MpCehiHzreSzNTczkc9d"?>
<x:xmpmeta xmlns:x="adobe:ns:meta/" x:xmptk="Adobe XMP Core 5.6-c140 79.160451, 2017/05/06-01:08:21        ">
   <rdf:RDF xmlns:rdf="http://www.w3.org/1999/02/22-rdf-syntax-ns#">
      <rdf:Description rdf:about=""/>
   </rdf:RDF>
</x:xmpmeta>
                                                                                                    
                                                                                                    
                                                                                                    
                                                                                                    
                                                                                                    
                                                                                                    
                                                                                                    
                                                                                                    
                                                                                                    
                                                                                                    
                                                                                                    
                                                                                                    
                                                                                                    
                                                                                                    
                                                                                                    
                                                                                                    
                                                                                                    
                                                                                                    
                                                                                                    
                                                                                                    
                           
<?xpacket end="w"?></metadata>
<defs>
    <style>
      .cls-1 {
        fill: #343434;
        fill-rule: evenodd;
      }
    </style>
  </defs>
  <path class="cls-1" d="M173.04,549.332H162.96a2.809,2.809,0,0,0-2.8,2.8V573.4a1.17,1.17,0,0,0,.616,1.009,1.1,1.1,0,0,0,.5.112,1.139,1.139,0,0,0,.672-0.224L168,569.643l6.048,4.651a1.114,1.114,0,0,0,1.792-.9V552.133A2.809,2.809,0,0,0,173.04,549.332Zm1.68,24.065-6.02-4.65a1.057,1.057,0,0,0-1.372,0l-6.048,4.65V552.133a1.685,1.685,0,0,1,1.68-1.68h0.56v7a0.56,0.56,0,1,0,1.12,0v-7h8.4a1.685,1.685,0,0,1,1.68,1.68V573.4Zm-10.64-13.98a0.563,0.563,0,0,0-.56.561v0.84a0.56,0.56,0,0,0,1.12,0v-0.84A0.563,0.563,0,0,0,164.08,559.417Z" transform="translate(-160.156 -549.344)"/>
</svg>
