<svg xmlns="http://www.w3.org/2000/svg" width="58" height="58.031" viewBox="0 0 58 58.031">
  <metadata><?xpacket begin="﻿" id="W5M0MpCehiHzreSzNTczkc9d"?>
<x:xmpmeta xmlns:x="adobe:ns:meta/" x:xmptk="Adobe XMP Core 5.6-c140 79.160451, 2017/05/06-01:08:21        ">
   <rdf:RDF xmlns:rdf="http://www.w3.org/1999/02/22-rdf-syntax-ns#">
      <rdf:Description rdf:about=""/>
   </rdf:RDF>
</x:xmpmeta>

                           
<?xpacket end="w"?></metadata>
<defs>
    <style>
      .cls-1 {
        fill: #ef4d94;
        fill-rule: evenodd;
      }
    </style>
  </defs>
  <path class="cls-1" d="M342.948,380.072h-10.87A7.223,7.223,0,0,0,321.63,370.1a13.487,13.487,0,0,0-2.777,4.411,13.5,13.5,0,0,0-2.778-4.411,7.066,7.066,0,0,0-5.134-2.115,7.23,7.23,0,0,0-5.374,12.084h-8.515a6.058,6.058,0,0,0-6.039,6.043v4.833a3.738,3.738,0,0,0,2.415,3.444v25.559c0,3.444,3.5,6.042,6.643,6.042h40.462a6.059,6.059,0,0,0,6.039-6.042V394.392a3.653,3.653,0,0,0,2.415-3.444v-4.833A6.058,6.058,0,0,0,342.948,380.072ZM323.321,371.8a4.827,4.827,0,1,1,6.825,6.827,10.716,10.716,0,0,1-1.631,1.269,1.069,1.069,0,0,0-.3.242H320a1.163,1.163,0,0,0,.181-0.6A12.8,12.8,0,0,1,323.321,371.8Zm-15.761-.061a4.811,4.811,0,0,1,6.763,0,12.756,12.756,0,0,1,3.141,7.613,1.023,1.023,0,0,0,.181.605h-8.153a0.938,0.938,0,0,1-.362-0.182,5.188,5.188,0,0,1-1.57-1.208A4.851,4.851,0,0,1,307.56,371.734Zm10.024,51.842H300.071c-1.932,0-4.227-1.632-4.227-3.625V394.574h21.74v29Zm28.988-32.628a1.245,1.245,0,0,1-.967,1.209,0.059,0.059,0,0,0-.06.06h-0.181a1.212,1.212,0,0,0-1.208,1.208v26.586a3.634,3.634,0,0,1-3.623,3.625H320V394.574h12.078a1.209,1.209,0,0,0,0-2.417H320v-5.438a1.208,1.208,0,1,0-2.416,0v5.438H294.636a1.212,1.212,0,0,1-1.208-1.209v-4.833a3.636,3.636,0,0,1,3.624-3.626h45.9a3.636,3.636,0,0,1,3.624,3.626v4.833Zm-7.247,1.209h-1.812a1.209,1.209,0,0,0,0,2.417h1.812A1.209,1.209,0,0,0,339.325,392.157Z" transform="translate(-291 -367.969)"/>
</svg>
