<svg xmlns="http://www.w3.org/2000/svg" width="58" height="46" viewBox="0 0 58 46">
  <metadata><?xpacket begin="﻿" id="W5M0MpCehiHzreSzNTczkc9d"?>
<x:xmpmeta xmlns:x="adobe:ns:meta/" x:xmptk="Adobe XMP Core 5.6-c140 79.160451, 2017/05/06-01:08:21        ">
   <rdf:RDF xmlns:rdf="http://www.w3.org/1999/02/22-rdf-syntax-ns#">
      <rdf:Description rdf:about=""/>
   </rdf:RDF>
</x:xmpmeta>

<?xpacket end="w"?></metadata>
<defs>
    <style>
      .cls-1 {
        fill: #ef4d94;
        fill-rule: evenodd;
      }
    </style>
  </defs>
  <path class="cls-1" d="M550.945,592.26H531.007a3.637,3.637,0,0,1-2.416-.908l-5.74-4.9A6.162,6.162,0,0,0,518.924,585h-13.9a6.065,6.065,0,0,0-6.041,6.054v33.9A6.065,6.065,0,0,0,505.028,631h45.917a6.065,6.065,0,0,0,6.041-6.054V598.314A6.065,6.065,0,0,0,550.945,592.26Zm3.625,32.689a3.639,3.639,0,0,1-3.625,3.632H505.028a3.639,3.639,0,0,1-3.625-3.632v-1.211h38.063a1.211,1.211,0,0,0,0-2.421H501.4V591.05a3.639,3.639,0,0,1,3.625-3.632h13.9a3.624,3.624,0,0,1,2.356.847l5.74,4.9a6.174,6.174,0,0,0,3.987,1.514h19.938a3.639,3.639,0,0,1,3.625,3.632v26.635Zm-7.854-3.632H544.9a1.211,1.211,0,0,0,0,2.421h1.813A1.211,1.211,0,0,0,546.716,621.317Z" transform="translate(-499 -585)"/>
</svg>
