<svg xmlns="http://www.w3.org/2000/svg" width="27" height="26" viewBox="0 0 27 26">
  <metadata><?xpacket begin="﻿" id="W5M0MpCehiHzreSzNTczkc9d"?>
<x:xmpmeta xmlns:x="adobe:ns:meta/" x:xmptk="Adobe XMP Core 5.6-c140 79.160451, 2017/05/06-01:08:21        ">
   <rdf:RDF xmlns:rdf="http://www.w3.org/1999/02/22-rdf-syntax-ns#">
      <rdf:Description rdf:about=""/>
   </rdf:RDF>
</x:xmpmeta>
                                                                                                    
                                                                                                    
                                                                                                    
                                                                                                    
                                                                                                    
                                                                                                    
                                                                                                    
                                                                                                    
                                                                                                    
                                                                                                    
                                                                                                    
                                                                                                    
                                                                                                    
                                                                                                    
                                                                                                    
                                                                                                    
                                                                                                    
                                                                                                    
                                                                                                    
                                                                                                    
                           
<?xpacket end="w"?></metadata>
<defs>
    <style>
      .cls-1 {
        fill: #343434;
        fill-rule: evenodd;
      }
    </style>
  </defs>
  <path class="cls-1" d="M180.961,393.877a0.531,0.531,0,0,0-.4-0.378l-8.19-1.946-4.4-7.263a0.556,0.556,0,0,0-.977,0l-4.368,7.234-8.189,1.946a0.589,0.589,0,0,0-.4.378,0.549,0.549,0,0,0,.115.552l5.489,6.478-0.661,8.483a0.6,0.6,0,0,0,.23.523,0.535,0.535,0,0,0,.546.059l7.729-3.283,7.759,3.283a0.537,0.537,0,0,0,.23.057,0.581,0.581,0,0,0,.575-0.639l-0.661-8.483,5.488-6.478A0.553,0.553,0,0,0,180.961,393.877Zm-6.609,6.449a0.723,0.723,0,0,0-.143.436l0.6,7.757-7.1-2.992a0.533,0.533,0,0,0-.23-0.058,0.667,0.667,0,0,0-.229.058l-7.1,2.992,0.6-7.757a0.617,0.617,0,0,0-.143-0.436l-4.972-5.926,7.5-1.772a0.679,0.679,0,0,0,.374-0.262l3.994-6.652,4.023,6.652a0.511,0.511,0,0,0,.345.262l7.5,1.772Zm-13.534-3.689-0.575-.7a0.581,0.581,0,0,0-.8-0.088,0.6,0.6,0,0,0-.087.814l0.575,0.7a0.553,0.553,0,0,0,.431.2,0.6,0.6,0,0,0,.374-0.145A0.532,0.532,0,0,0,160.818,396.637Zm1.063,1.22a0.58,0.58,0,0,0-.805-0.058,0.6,0.6,0,0,0-.057.813l0.172,0.2a3.8,3.8,0,0,1,.891,2.789l-0.143,1.83a0.584,0.584,0,0,0,.517.639h0.057a0.59,0.59,0,0,0,.575-0.523l0.144-1.83a5.126,5.126,0,0,0-1.179-3.632Z" transform="translate(-154 -384)"/>
</svg>
