<svg xmlns="http://www.w3.org/2000/svg" width="25.937" height="25.81" viewBox="0 0 25.937 25.81"><defs><style>.cls-1{fill:#343434;fill-rule:evenodd}</style></defs><path class="cls-1" d="M19.368 3.55a2.985 2.985 0 1 0 2.984 2.99 3 3 0 0 0-2.984-2.99zm0 4.78a1.79 1.79 0 1 1 1.79-1.79 1.8 1.8 0 0 1-1.79 1.79zM22.948 0h-8.056a2.829 2.829 0 0 0-2.089.87L.837 12.78a2.974 2.974 0 0 0 0 4.21l8 7.97a3.039 3.039 0 0 0 4.237 0L25.04 12.99a2.864 2.864 0 0 0 .9-2.06V2.99A2.992 2.992 0 0 0 22.948 0zm1.791 10.93a1.552 1.552 0 0 1-.537 1.19l-12 12a1.8 1.8 0 0 1-2.507 0l-8.027-7.97a1.825 1.825 0 0 1 0-2.54L13.634 1.7a1.747 1.747 0 0 1 1.254-.5h8.056a1.792 1.792 0 0 1 1.791 1.79v7.94z"/></svg>