<svg xmlns="http://www.w3.org/2000/svg" width="33.625" height="38.314" viewBox="0 0 33.625 38.314">
  <metadata><?xpacket begin="﻿" id="W5M0MpCehiHzreSzNTczkc9d"?>
<x:xmpmeta xmlns:x="adobe:ns:meta/" x:xmptk="Adobe XMP Core 5.6-c140 79.160451, 2017/05/06-01:08:21        ">
   <rdf:RDF xmlns:rdf="http://www.w3.org/1999/02/22-rdf-syntax-ns#">
      <rdf:Description rdf:about=""/>
   </rdf:RDF>
</x:xmpmeta>


<?xpacket end="w"?></metadata>
<defs>
    <style>
      .cls-1 {
        fill: #ef4d94;
        fill-rule: evenodd;
      }
    </style>
  </defs>
  <path class="cls-1" d="M57.8,972.3H50.2a0.507,0.507,0,0,0-.24.04l-0.28-.279-3.2-2.439a2.46,2.46,0,0,0-2.92,0l-3.2,2.439a1.689,1.689,0,0,0-.28.239H32.2a4.011,4.011,0,0,0-4,4v1.6a2.381,2.381,0,0,0,1.6,2.239v23.345c0,2.28,2.32,4,4.4,4h22a4.012,4.012,0,0,0,4-4V980.175a2.418,2.418,0,0,0,1.6-2.279v-1.6A4.011,4.011,0,0,0,57.8,972.3ZM41,973.978a0.87,0.87,0,0,1,.28-0.639l3.24-2.479A0.7,0.7,0,0,1,45,970.7a0.88,0.88,0,0,1,.52.16l3.2,2.439a0.774,0.774,0,0,1,.32.64V974.7a0.8,0.8,0,0,1-.8.8H41.8a0.8,0.8,0,0,1-.8-0.8v-0.72h0ZM60.2,977.9a0.824,0.824,0,0,1-.64.8,0.039,0.039,0,0,0-.04.04H59.4a0.8,0.8,0,0,0-.8.8v23.984a2.407,2.407,0,0,1-2.4,2.4h-22c-1.28,0-2.8-1.08-2.8-2.4V980.3H47a0.8,0.8,0,1,0,0-1.6H30.6a0.8,0.8,0,0,1-.8-0.8v-1.6a2.406,2.406,0,0,1,2.4-2.4h7.2v0.8a2.407,2.407,0,0,0,2.4,2.4h6.44a2.407,2.407,0,0,0,2.4-2.4v-0.8H57.8a2.406,2.406,0,0,1,2.4,2.4v1.6Zm-6,.8H53a0.8,0.8,0,1,0,0,1.6h1.2A0.8,0.8,0,1,0,54.2,978.7Zm-18,6.4H35.4a0.8,0.8,0,1,0,0,1.6h0.8A0.8,0.8,0,1,0,36.2,985.093Zm0,4.8H35.4a0.8,0.8,0,1,0,0,1.6h0.8A0.8,0.8,0,1,0,36.2,989.89Zm3.6-3.2H51a0.8,0.8,0,1,0,0-1.6H39.8A0.8,0.8,0,1,0,39.8,986.692Zm13.2,3.2H39.8a0.8,0.8,0,1,0,0,1.6H53A0.8,0.8,0,1,0,53,989.89Zm-16.8,4.8H35.4a0.8,0.8,0,1,0,0,1.6h0.8A0.8,0.8,0,1,0,36.2,994.688Zm12.4,0H39.8a0.8,0.8,0,1,0,0,1.6h8.8A0.8,0.8,0,1,0,48.6,994.688Z" transform="translate(-28.188 -969.156)"/>
</svg>
