<svg xmlns="http://www.w3.org/2000/svg" width="58" height="55" viewBox="0 0 58 55"><defs><style>.cls-1{fill:#2c9c90;fill-rule:evenodd}</style></defs><path class="cls-1" d="M51.948 7.169h-6.039V3.581a3.624 3.624 0 0 0-7.247 0v3.588H19.337V3.581a3.623 3.623 0 0 0-7.246 0v3.588H6.052a6.027 6.027 0 0 0-6.039 5.98v7.175a3.565 3.565 0 0 0 2.415 3.349v25.353c0 3.409 3.5 5.98 6.643 5.98h40.462a6.028 6.028 0 0 0 6.039-5.98V23.733a3.619 3.619 0 0 0 2.415-3.409v-7.175a6.027 6.027 0 0 0-6.039-5.98zm-10.87-3.588a1.208 1.208 0 0 1 2.416 0v9.568a1.208 1.208 0 0 1-2.416 0V3.581zm-26.572 0a1.208 1.208 0 0 1 2.416 0v9.568a1.208 1.208 0 0 1-2.416 0V3.581zm41.066 16.743a1.234 1.234 0 0 1-.967 1.2.059.059 0 0 0-.06.06h-.181a1.206 1.206 0 0 0-1.208 1.2v26.31a3.616 3.616 0 0 1-3.623 3.588H9.071c-1.932 0-4.227-1.614-4.227-3.588V23.912h36.234a1.2 1.2 0 1 0 0-2.392H3.636a1.206 1.206 0 0 1-1.208-1.2v-7.175a3.617 3.617 0 0 1 3.624-3.588h6.039v3.588a3.623 3.623 0 0 0 7.246 0V9.557h19.325v3.588a3.624 3.624 0 0 0 7.247 0V9.557h6.039a3.617 3.617 0 0 1 3.624 3.588v7.175zm-7.247 1.2h-1.812a1.2 1.2 0 1 0 0 2.392h1.812a1.2 1.2 0 1 0 0-2.396zm-30.2 9.568h-7.247a1.2 1.2 0 1 0 0 2.391h7.247a1.2 1.2 0 1 0 .005-2.395zm0 9.567h-7.247a1.2 1.2 0 1 0 0 2.392h7.247a1.2 1.2 0 1 0 .005-2.396zm13.889-9.567h-7.246a1.2 1.2 0 1 0 0 2.391h7.246a1.2 1.2 0 1 0 .005-2.395zm0 9.567h-7.246a1.2 1.2 0 1 0 0 2.392h7.246a1.2 1.2 0 1 0 .005-2.396zm13.89-9.567h-7.247a1.2 1.2 0 1 0 0 2.391h7.247a1.2 1.2 0 1 0 .005-2.395zm0 9.567h-7.247a1.2 1.2 0 1 0 0 2.392h7.247a1.2 1.2 0 1 0 .005-2.396z"/></svg>