<svg xmlns="http://www.w3.org/2000/svg" width="30" height="26" viewBox="0 0 30 26">
  <metadata><?xpacket begin="﻿" id="W5M0MpCehiHzreSzNTczkc9d"?>
<x:xmpmeta xmlns:x="adobe:ns:meta/" x:xmptk="Adobe XMP Core 5.6-c140 79.160451, 2017/05/06-01:08:21        ">
   <rdf:RDF xmlns:rdf="http://www.w3.org/1999/02/22-rdf-syntax-ns#">
      <rdf:Description rdf:about=""/>
   </rdf:RDF>
</x:xmpmeta>
                                                                                                    
                                                                                                    
                                                                                                    
                                                                                                    
                                                                                                    
                                                                                                    
                                                                                                    
                                                                                                    
                                                                                                    
                                                                                                    
                                                                                                    
                                                                                                    
                                                                                                    
                                                                                                    
                                                                                                    
                                                                                                    
                                                                                                    
                                                                                                    
                                                                                                    
                                                                                                    
                           
<?xpacket end="w"?></metadata>
<defs>
    <style>
      .cls-1 {
        fill: #343434;
        fill-rule: evenodd;
      }
    </style>
  </defs>
  <path class="cls-1" d="M177.182,318.316a2.737,2.737,0,1,0,2.727,2.737A2.74,2.74,0,0,0,177.182,318.316Zm0,4.105a1.369,1.369,0,1,1,1.363-1.368A1.37,1.37,0,0,1,177.182,322.421Zm3.409-12.316H180.25v-0.684A3.425,3.425,0,0,0,176.841,306H157.409A3.425,3.425,0,0,0,154,309.421v19.158A3.425,3.425,0,0,0,157.409,332h23.182A3.425,3.425,0,0,0,184,328.579V313.526A3.425,3.425,0,0,0,180.591,310.105Zm2.045,18.474a2.055,2.055,0,0,1-2.045,2.053H157.409a2.055,2.055,0,0,1-2.045-2.053V309.421a2.055,2.055,0,0,1,2.045-2.053h19.432a2.055,2.055,0,0,1,2.045,2.053v0.684h-16.7a0.685,0.685,0,0,0,0,1.369h18.409a2.054,2.054,0,0,1,2.045,2.052v15.053Zm-23.522-18.474h-1.023a0.685,0.685,0,0,0,0,1.369h1.023A0.685,0.685,0,0,0,159.114,310.105Z" transform="translate(-154 -306)"/>
</svg>
