<svg xmlns="http://www.w3.org/2000/svg" width="19.876" height="27.125" viewBox="0 0 19.876 27.125">
  <metadata><?xpacket begin="﻿" id="W5M0MpCehiHzreSzNTczkc9d"?>
<x:xmpmeta xmlns:x="adobe:ns:meta/" x:xmptk="Adobe XMP Core 5.6-c140 79.160451, 2017/05/06-01:08:21        ">
   <rdf:RDF xmlns:rdf="http://www.w3.org/1999/02/22-rdf-syntax-ns#">
      <rdf:Description rdf:about=""/>
   </rdf:RDF>
</x:xmpmeta>
                                                                                                    
                                                                                                    
                                                                                                    
                                                                                                    
                                                                                                    
                                                                                                    
                                                                                                    
                                                                                                    
                                                                                                    
                                                                                                    
                                                                                                    
                                                                                                    
                                                                                                    
                                                                                                    
                                                                                                    
                                                                                                    
                                                                                                    
                                                                                                    
                                                                                                    
                                                                                                    
                           
<?xpacket end="w"?></metadata>
<defs>
    <style>
      .cls-1 {
        fill: #343434;
        fill-rule: evenodd;
      }
    </style>
  </defs>
  <path class="cls-1" d="M174.608,640.15c-1.82-2.265-3.724-4.643-3.668-8.978a0.558,0.558,0,0,0-.308-0.5,0.623,0.623,0,0,0-.588.028,13.606,13.606,0,0,0-4.984,12.783,8,8,0,0,1-2.436-2.741c-0.224-.364-0.448-0.728-0.7-1.063a0.567,0.567,0,0,0-.924.028c-1.456,2.266-2.94,5.007-2.94,7.972,0,5.846,4.116,10.069,9.8,10.069a9.861,9.861,0,0,0,10.08-10.069C177.94,644.29,176.26,642.192,174.608,640.15Zm-6.748,16.475c-5.04,0-8.68-3.776-8.68-8.95a13.069,13.069,0,0,1,2.324-6.658c0.056,0.112.14,0.2,0.2,0.308a8.742,8.742,0,0,0,2.8,3.1,1.1,1.1,0,0,0,1.68-1.091,12.557,12.557,0,0,1,3.668-10.993c0.28,4.028,2.184,6.406,3.892,8.532,1.652,2.042,3.08,3.8,3.08,6.8A8.773,8.773,0,0,1,167.86,656.625ZM175.42,646a0.562,0.562,0,0,0-.56.56,8.889,8.889,0,0,1-1.456,5.007,0.58,0.58,0,0,0,.168.783,0.564,0.564,0,0,0,.308.084,0.55,0.55,0,0,0,.476-0.252,10.3,10.3,0,0,0,1.624-5.622A0.562,0.562,0,0,0,175.42,646Zm-2.3,6.853a0.57,0.57,0,0,0-.784.056,4.647,4.647,0,0,1-.532.5,0.567,0.567,0,0,0-.056.783,0.541,0.541,0,0,0,.42.2,0.59,0.59,0,0,0,.364-0.14,6.808,6.808,0,0,0,.644-0.615A0.568,0.568,0,0,0,173.124,652.849Z" transform="translate(-158.062 -630.625)"/>
</svg>
