<svg xmlns="http://www.w3.org/2000/svg" width="59" height="51" viewBox="0 0 59 51">
  <metadata><?xpacket begin="﻿" id="W5M0MpCehiHzreSzNTczkc9d"?>
<x:xmpmeta xmlns:x="adobe:ns:meta/" x:xmptk="Adobe XMP Core 5.6-c140 79.160451, 2017/05/06-01:08:21        ">
   <rdf:RDF xmlns:rdf="http://www.w3.org/1999/02/22-rdf-syntax-ns#">
      <rdf:Description rdf:about=""/>
   </rdf:RDF>
</x:xmpmeta>

<?xpacket end="w"?></metadata>
<defs>
    <style>
      .cls-1 {
        fill: #b0b0b0;
        fill-rule: evenodd;
      }
    </style>
  </defs>
  <path class="cls-1" d="M118.582,392.142h1.669a1.213,1.213,0,0,0,0-2.426h-1.669A1.213,1.213,0,0,0,118.582,392.142Zm22.179,29.666-1.49-3.7a3.012,3.012,0,0,0-2.743-1.82h-1.312V392.142h2.564a2.376,2.376,0,0,0,2.325-1.881,2.457,2.457,0,0,0-1.311-2.729l-24.8-11.952a5.724,5.724,0,0,0-5.067,0L84,387.532a2.421,2.421,0,0,0-1.312,2.729,2.371,2.371,0,0,0,2.325,1.942h2.5v24.145H86.446a3.011,3.011,0,0,0-2.743,1.82l-1.49,3.64a3.205,3.205,0,0,0,.3,2.851,2.912,2.912,0,0,0,2.444,1.334h53.063a2.912,2.912,0,0,0,2.444-1.334A2.86,2.86,0,0,0,140.761,421.808ZM85.075,389.716l24.862-11.952a3.359,3.359,0,0,1,3.041,0l24.862,11.952h-3.816a1.205,1.205,0,0,0-1.192,1.213,0.3,0.3,0,0,0,.059.242c0,0.061-.059.182-0.059,0.243v24.873h-4.77V399.422a4.771,4.771,0,1,0-9.54,0v16.926h-2.384V399.422a4.771,4.771,0,1,0-9.54,0v16.926h-2.385V399.422a4.77,4.77,0,1,0-9.539,0v16.926H89.9V392.142h23.312a1.213,1.213,0,0,0,0-2.426H85.075Zm40.6,9.706v16.926h-4.77V399.422A2.385,2.385,0,1,1,125.677,399.422Zm-11.924,0v16.926h-4.77V399.422A2.385,2.385,0,1,1,113.753,399.422Zm-11.924,0v16.926h-4.77V399.422A2.385,2.385,0,1,1,101.829,399.422Zm36.667,23.9a0.736,0.736,0,0,1-.477.3H84.956a0.492,0.492,0,0,1-.477-0.3,0.611,0.611,0,0,1-.06-0.607l1.49-3.579a0.656,0.656,0,0,1,.6-0.364h50.082a0.655,0.655,0,0,1,.6.364l1.49,3.64A0.957,0.957,0,0,1,138.5,423.324Z" transform="translate(-82 -375)"/>
</svg>
