<svg xmlns="http://www.w3.org/2000/svg" width="26.093" height="27" viewBox="0 0 26.093 27">
  <metadata><?xpacket begin="﻿" id="W5M0MpCehiHzreSzNTczkc9d"?>
<x:xmpmeta xmlns:x="adobe:ns:meta/" x:xmptk="Adobe XMP Core 5.6-c140 79.160451, 2017/05/06-01:08:21        ">
   <rdf:RDF xmlns:rdf="http://www.w3.org/1999/02/22-rdf-syntax-ns#">
      <rdf:Description rdf:about=""/>
   </rdf:RDF>
</x:xmpmeta>
                                                                                                    
                                                                                                    
                                                                                                    
                                                                                                    
                                                                                                    
                                                                                                    
                                                                                                    
                                                                                                    
                                                                                                    
                                                                                                    
                                                                                                    
                                                                                                    
                                                                                                    
                                                                                                    
                                                                                                    
                                                                                                    
                                                                                                    
                                                                                                    
                                                                                                    
                                                                                                    
                           
<?xpacket end="w"?></metadata>
<defs>
    <style>
      .cls-1 {
        fill: #343434;
        fill-rule: evenodd;
      }
    </style>
  </defs>
  <path id="Shape_1_копия_7" data-name="Shape 1 копия 7" class="cls-1" d="M179.118,248.088h-2.1v-0.025H161.037v0.025h-2.175a2.931,2.931,0,0,1-2.922-2.922V239.3c0-.049.012-0.095,0.014-0.143v-8.525c0-.049-0.014-0.094-0.014-0.143v-6.473a2.931,2.931,0,0,1,2.922-2.923h2.512v0h15.3v0h2.44a2.931,2.931,0,0,1,2.922,2.923v6.473c0,0.057-.014.111-0.017,0.167v8.476c0,0.057.017,0.111,0.017,0.168v5.865A2.931,2.931,0,0,1,179.118,248.088Zm1.753-3.351h-0.007V226.209h0.007v-2.033l0-.159a1.759,1.759,0,0,0-1.753-1.754h-3.969v-0.016H163.962v0.016h-5.1a1.759,1.759,0,0,0-1.754,1.754l0,0.159v1.809h0v17.444h0v1.578l0,0.159a1.759,1.759,0,0,0,1.754,1.753h2.172V246.9h15.978v0.015h2.1a1.758,1.758,0,0,0,1.753-1.753l0-.159v-0.27Z" transform="translate(-155.938 -221.094)"/>
</svg>
