<svg xmlns="http://www.w3.org/2000/svg" width="50.407" height="48.156" viewBox="0 0 50.407 48.156"><defs><style>.cls-1{fill:#b0b0b0;fill-rule:evenodd}</style></defs><path class="cls-1" d="M46.819 17.342v-.18L44.057 4.731a6.034 6.034 0 0 0-5.883-4.743H11.637a6.034 6.034 0 0 0-5.883 4.743L2.992 17.222a.662.662 0 0 0 0 .48 6.008 6.008 0 0 0-3 5.224v12.01a5.665 5.665 0 0 0 2.461 4.5 2.6 2.6 0 0 0-.06.3v4.2a4.177 4.177 0 0 0 4.2 4.2h1.2a4.177 4.177 0 0 0 4.2-4.2v-3h26.414v3a4.177 4.177 0 0 0 4.2 4.2h1.2a4.176 4.176 0 0 0 4.2-4.2v-4.2a6 6 0 0 0 2.4-4.8v-12.07a6.1 6.1 0 0 0-3.588-5.524zM8.159 5.272a3.594 3.594 0 0 1 3.482-2.822h26.533a3.544 3.544 0 0 1 3.482 2.822l2.582 11.59H5.578zM9.6 43.884a1.769 1.769 0 0 1-1.8 1.8H6.6a1.769 1.769 0 0 1-1.8-1.8v-3.3a6.3 6.3 0 0 0 1.8.3h3v3zm36.018 0a1.768 1.768 0 0 1-1.8 1.8h-1.2a1.768 1.768 0 0 1-1.8-1.8v-3h3.6a7.386 7.386 0 0 0 1.2-.12v3.123zm2.4-9.008a3.612 3.612 0 0 1-3.6 3.6H6.598c-1.921 0-4.2-1.621-4.2-3.6v-12.01a3.614 3.614 0 0 1 3.6-3.6h38.421a3.613 3.613 0 0 1 3.6 3.6v12.01zM8.999 24.668a3.6 3.6 0 1 0 3.6 3.6 3.613 3.613 0 0 0-3.603-3.6zm0 4.8a1.2 1.2 0 1 1 1.2-1.2 1.2 1.2 0 0 1-1.203 1.204zm32.416-4.8a3.6 3.6 0 1 0 3.6 3.6 3.613 3.613 0 0 0-3.603-3.6zm0 4.8a1.2 1.2 0 1 1 1.2-1.2 1.205 1.205 0 0 1-1.203 1.204z"/></svg>