<svg xmlns="http://www.w3.org/2000/svg" width="111" height="111" viewBox="0 0 111 111"><defs><style>.cls-1{fill:#007a6c;fill-rule:evenodd}</style></defs><path class="cls-1" d="M55.515 18.1a2.424 2.424 0 0 0 2.413-2.42v-1.2a2.413 2.413 0 1 0-4.826 0v1.2a2.424 2.424 0 0 0 2.413 2.42zm0 74.8a2.422 2.422 0 0 0-2.413 2.41v1.21a2.413 2.413 0 0 0 4.826 0v-1.21a2.422 2.422 0 0 0-2.413-2.41zM15.7 53.09h-1.207a2.41 2.41 0 1 0 0 4.82H15.7a2.41 2.41 0 1 0 0-4.82zm80.837 0h-1.206a2.41 2.41 0 1 0 0 4.82h1.207a2.41 2.41 0 1 0-.001-4.82zM28.248 24.85a2.39 2.39 0 1 0-3.378 3.38l.844.85a2.341 2.341 0 0 0 3.378 0 2.333 2.333 0 0 0 0-3.38zm-2.534 57.07l-.844.85a2.333 2.333 0 0 0 0 3.38 2.341 2.341 0 0 0 3.378 0l.844-.85a2.39 2.39 0 0 0-3.378-3.38zm57.069-57.07l-.845.85a2.335 2.335 0 0 0 0 3.38 2.341 2.341 0 0 0 3.378 0l.845-.85a2.39 2.39 0 1 0-3.378-3.38zM57.931 54.53V32.58a2.413 2.413 0 1 0-4.826 0V55.5a2.384 2.384 0 0 0 .724 1.69l26.423 26.42a2.319 2.319 0 0 0 3.378 0 2.335 2.335 0 0 0 0-3.38zM55.518 0a55.5 55.5 0 1 0 55.5 55.5A55.506 55.506 0 0 0 55.515 0zm0 106.17a50.67 50.67 0 1 1 50.671-50.67 50.665 50.665 0 0 1-50.674 50.67z"/></svg>