<svg xmlns="http://www.w3.org/2000/svg" width="59" height="51" viewBox="0 0 59 51"><defs><style>.cls-1{fill:#b0b0b0;fill-rule:evenodd}</style></defs><path class="cls-1" d="M36.582 17.142h1.669a1.213 1.213 0 0 0 0-2.426h-1.669a1.213 1.213 0 0 0 0 2.426zm22.179 29.666l-1.49-3.7a3.012 3.012 0 0 0-2.743-1.82h-1.312V17.142h2.564a2.376 2.376 0 0 0 2.325-1.881 2.457 2.457 0 0 0-1.311-2.729L31.994.58a5.724 5.724 0 0 0-5.067 0L2 12.532a2.421 2.421 0 0 0-1.312 2.729 2.371 2.371 0 0 0 2.325 1.942h2.5v24.145H4.446a3.011 3.011 0 0 0-2.743 1.82l-1.49 3.64a3.205 3.205 0 0 0 .3 2.851 2.912 2.912 0 0 0 2.444 1.334H56.02a2.912 2.912 0 0 0 2.444-1.334 2.86 2.86 0 0 0 .297-2.851zM3.075 14.716L27.937 2.764a3.359 3.359 0 0 1 3.041 0L55.84 14.716h-3.816a1.205 1.205 0 0 0-1.192 1.213.3.3 0 0 0 .059.242c0 .061-.059.182-.059.243v24.873h-4.77V24.422a4.771 4.771 0 1 0-9.54 0v16.926h-2.384V24.422a4.771 4.771 0 1 0-9.54 0v16.926h-2.385V24.422a4.77 4.77 0 1 0-9.539 0v16.926H7.9V17.142h23.312a1.213 1.213 0 0 0 0-2.426H3.075zm40.6 9.706v16.926h-4.77V24.422a2.386 2.386 0 1 1 4.772 0zm-11.924 0v16.926h-4.77V24.422a2.386 2.386 0 1 1 4.772 0zm-11.924 0v16.926h-4.77V24.422a2.386 2.386 0 1 1 4.772 0zm36.667 23.9a.736.736 0 0 1-.477.3H2.956a.492.492 0 0 1-.477-.3.611.611 0 0 1-.06-.607l1.49-3.579a.656.656 0 0 1 .6-.364h50.082a.655.655 0 0 1 .6.364l1.49 3.64a.957.957 0 0 1-.181.548z"/></svg>