<svg xmlns="http://www.w3.org/2000/svg" width="28" height="28" viewBox="0 0 28 28"><defs><style>.cls-1{fill:#343434;fill-rule:evenodd}</style></defs><path class="cls-1" d="M17.141 12.17a.565.565 0 0 0-.572.555v.831a.572.572 0 0 0 1.143 0v-.831a.565.565 0 0 0-.571-.555zm8.341 0l2.429-5.932a1.094 1.094 0 0 0-.086-1.026 1.083 1.083 0 0 0-.943-.5h-9.17v-.555a2.824 2.824 0 0 0-2.857-2.772H5.142V.553a.572.572 0 0 0-1.143 0V26.89H.571a.555.555 0 1 0 0 1.109h8a.555.555 0 1 0 0-1.109H5.143V15.774h8.028v.555a2.823 2.823 0 0 0 2.856 2.772h10.828a1.111 1.111 0 0 0 .942-.5 1.009 1.009 0 0 0 .086-1.054zm-9.456 5.822a1.7 1.7 0 0 1-1.714-1.663V15.22a.565.565 0 0 0-.571-.555.263.263 0 0 0-.143.028c-.057 0-.085-.028-.143-.028H5.142v-12.2h9.713a1.694 1.694 0 0 1 1.714 1.664v6.1a.572.572 0 0 0 1.143 0V5.793h9.142v.028l-2.514 6.154a.527.527 0 0 0 0 .416l2.514 5.6H16.026z"/></svg>