<svg xmlns="http://www.w3.org/2000/svg" width="58" height="58.031" viewBox="0 0 58 58.031"><defs><style>.cls-1{fill:#b0b0b0;fill-rule:evenodd}</style></defs><path class="cls-1" d="M51.948 12.103h-10.87A7.223 7.223 0 0 0 30.63 2.131a13.487 13.487 0 0 0-2.777 4.411 13.5 13.5 0 0 0-2.778-4.411A7.066 7.066 0 0 0 19.941.016 7.23 7.23 0 0 0 14.567 12.1H6.052a6.058 6.058 0 0 0-6.039 6.043v4.833a3.738 3.738 0 0 0 2.415 3.444v25.559c0 3.444 3.5 6.042 6.643 6.042h40.462a6.059 6.059 0 0 0 6.039-6.042V26.423a3.653 3.653 0 0 0 2.415-3.444v-4.833a6.058 6.058 0 0 0-6.039-6.043zM32.321 3.831a4.827 4.827 0 1 1 6.825 6.827 10.716 10.716 0 0 1-1.631 1.269 1.069 1.069 0 0 0-.3.242H29a1.163 1.163 0 0 0 .181-.6 12.8 12.8 0 0 1 3.14-7.738zM16.56 3.77a4.811 4.811 0 0 1 6.763 0 12.756 12.756 0 0 1 3.141 7.613 1.023 1.023 0 0 0 .181.605h-8.153a.938.938 0 0 1-.362-.182 5.188 5.188 0 0 1-1.57-1.208 4.851 4.851 0 0 1 0-6.833zm10.024 51.842H9.071c-1.932 0-4.227-1.632-4.227-3.625V26.605h21.74v29zm28.988-32.628a1.245 1.245 0 0 1-.967 1.209.059.059 0 0 0-.06.06h-.181a1.212 1.212 0 0 0-1.208 1.208v26.586a3.634 3.634 0 0 1-3.623 3.625H29V26.605h12.078a1.209 1.209 0 0 0 0-2.417H29V18.75a1.208 1.208 0 1 0-2.416 0v5.438H3.636a1.212 1.212 0 0 1-1.208-1.209v-4.833a3.636 3.636 0 0 1 3.624-3.626h45.9a3.636 3.636 0 0 1 3.624 3.626v4.833zm-7.247 1.209h-1.812a1.209 1.209 0 0 0 0 2.417h1.812a1.211 1.211 0 0 0 0-2.422z"/></svg>