<svg xmlns="http://www.w3.org/2000/svg" width="58" height="46" viewBox="0 0 58 46"><defs><style>.cls-1{fill:#ef4d94;fill-rule:evenodd}</style></defs><path class="cls-1" d="M51.945 7.26H32.007a3.637 3.637 0 0 1-2.416-.908l-5.74-4.9A6.162 6.162 0 0 0 19.924 0h-13.9A6.065 6.065 0 0 0-.017 6.054v33.9A6.065 6.065 0 0 0 6.028 46h45.917a6.065 6.065 0 0 0 6.041-6.054V13.314a6.065 6.065 0 0 0-6.041-6.054zm3.625 32.689a3.639 3.639 0 0 1-3.625 3.632H6.028a3.639 3.639 0 0 1-3.625-3.632v-1.211h38.063a1.211 1.211 0 0 0 0-2.421H2.4V6.05a3.639 3.639 0 0 1 3.625-3.632h13.9a3.624 3.624 0 0 1 2.356.847l5.74 4.9a6.174 6.174 0 0 0 3.987 1.514h19.938a3.639 3.639 0 0 1 3.625 3.632v26.635zm-7.854-3.632H45.9a1.211 1.211 0 0 0 0 2.421h1.813a1.211 1.211 0 0 0 .003-2.421z"/></svg>