<svg xmlns="http://www.w3.org/2000/svg" width="26.093" height="27" viewBox="0 0 26.093 27"><defs><style>.cls-1{fill:#343434;fill-rule:evenodd}</style></defs><path id="Shape_1_копия_7" data-name="Shape 1 копия 7" class="cls-1" d="M179.118 248.088h-2.1v-.025h-15.981v.025h-2.175a2.931 2.931 0 0 1-2.922-2.922V239.3c0-.049.012-.095.014-.143v-8.525c0-.049-.014-.094-.014-.143v-6.473a2.931 2.931 0 0 1 2.922-2.923h20.252a2.931 2.931 0 0 1 2.922 2.923v6.473c0 .057-.014.111-.017.167v8.476c0 .057.017.111.017.168v5.865a2.931 2.931 0 0 1-2.918 2.923zm1.753-3.351h-.007v-18.528h.007v-2.192a1.759 1.759 0 0 0-1.753-1.754h-3.969v-.016h-11.187v.016h-5.1a1.759 1.759 0 0 0-1.754 1.754v21.149a1.759 1.759 0 0 0 1.754 1.753h2.172v-.019h15.978v.015h2.1a1.758 1.758 0 0 0 1.753-1.753v-.429z" transform="translate(-155.938 -221.094)"/></svg>