<svg xmlns="http://www.w3.org/2000/svg" width="15.062" height="14" viewBox="0 0 15.062 14"><defs><style>.cls-1{fill:#666;fill-rule:evenodd}</style></defs><path id="Forma_1" data-name="Forma 1" class="cls-1" d="M22.526 479.432a.569.569 0 0 0 1.138 0V470.2a2.157 2.157 0 1 0-1.125-.014v9.247h-.013zm-.43-11.3a1.014 1.014 0 1 1 1.014 1 1.015 1.015 0 0 1-1.01-.995zm6.457-2.147a.56.56 0 0 0-.569.564v4.836a2.122 2.122 0 0 0 0 4.1v3.942a.569.569 0 0 0 1.139 0v-3.942a2.131 2.131 0 0 0 0-4.126v-4.808a.56.56 0 0 0-.57-.561zm1.041 7.449a1.014 1.014 0 1 1-1.013-1 1.014 1.014 0 0 1 1.013 1.005zm4.848 2.377v-9.247a.569.569 0 0 0-1.139 0v9.247a2.152 2.152 0 1 0 1.138.005zm-.555 3.052a1 1 0 1 1 1.014-1 1.014 1.014 0 0 1-1.015 1.005z" transform="translate(-20.969 -466)"/></svg>