<svg xmlns="http://www.w3.org/2000/svg" width="19.876" height="27.125" viewBox="0 0 19.876 27.125"><defs><style>.cls-1{fill:#343434;fill-rule:evenodd}</style></defs><path class="cls-1" d="M16.546 9.525c-1.82-2.265-3.724-4.643-3.668-8.978a.558.558 0 0 0-.308-.5.623.623 0 0 0-.588.028 13.606 13.606 0 0 0-4.984 12.783 8 8 0 0 1-2.436-2.741c-.224-.364-.448-.728-.7-1.063a.567.567 0 0 0-.924.028c-1.456 2.266-2.94 5.007-2.94 7.972 0 5.846 4.116 10.069 9.8 10.069a9.861 9.861 0 0 0 10.08-10.069c0-3.389-1.68-5.487-3.332-7.529zM9.798 26c-5.04 0-8.68-3.776-8.68-8.95a13.069 13.069 0 0 1 2.324-6.658c.056.112.14.2.2.308a8.742 8.742 0 0 0 2.8 3.1 1.1 1.1 0 0 0 1.68-1.091A12.557 12.557 0 0 1 11.79 1.716c.28 4.028 2.184 6.406 3.892 8.532 1.652 2.042 3.08 3.8 3.08 6.8A8.773 8.773 0 0 1 9.798 26zm7.56-10.625a.562.562 0 0 0-.56.56 8.889 8.889 0 0 1-1.456 5.007.58.58 0 0 0 .168.783.564.564 0 0 0 .308.084.55.55 0 0 0 .476-.252 10.3 10.3 0 0 0 1.624-5.622.562.562 0 0 0-.56-.56zm-2.3 6.853a.57.57 0 0 0-.784.056 4.647 4.647 0 0 1-.532.5.567.567 0 0 0-.056.783.541.541 0 0 0 .42.2.59.59 0 0 0 .364-.14 6.808 6.808 0 0 0 .644-.615.568.568 0 0 0-.052-.788z"/></svg>