<svg xmlns="http://www.w3.org/2000/svg" width="28.031" height="28.031" viewBox="0 0 28.031 28.031"><defs><style>.cls-1{fill:#343434;fill-rule:evenodd}</style></defs><path class="cls-1" d="M26.993 4.542L23.455 1a3.462 3.462 0 0 0-4.881 0L1 18.574a3.462 3.462 0 0 0 0 4.881l3.538 3.538a3.462 3.462 0 0 0 4.881 0l17.57-17.57a3.46 3.46 0 0 0 .004-4.881zM8.447 26.017a2.077 2.077 0 0 1-2.928 0L1.98 22.479a2.078 2.078 0 0 1 0-2.929L19.55 1.98a2.078 2.078 0 0 1 2.929 0l3.538 3.538a2.076 2.076 0 0 1 0 2.929zm14.154-18.79l-4.149-4.149a.69.69 0 0 0-.976.976l4.149 4.149a.69.69 0 0 0 .975-.976zm-4.271-.61l-1.708-1.709a.69.69 0 1 0-.976.976l1.708 1.709a.69.69 0 1 0 .976-.976zm-1.83 1.83l-1.708-1.708a.69.69 0 0 0-.976.976l1.708 1.708a.69.69 0 0 0 .976-.976zm-1.83 1.83l-1.709-1.708a.69.69 0 0 0-.976.976l1.709 1.708a.69.69 0 1 0 .976-.976zm.61 4.271l-4.149-4.149a.69.69 0 1 0-.976.976l4.149 4.149a.69.69 0 1 0 .976-.976zm-4.271-.61l-1.708-1.709a.69.69 0 0 0-.976.976l1.708 1.709a.69.69 0 0 0 .976-.976zm-1.83 1.83L7.471 14.06a.69.69 0 0 0-.976.976l1.708 1.708a.69.69 0 1 0 .976-.976zm-1.83 1.83L5.641 15.89a.69.69 0 1 0-.977.976l1.709 1.708a.69.69 0 1 0 .976-.974zm.61 4.271L3.81 17.72a.69.69 0 0 0-.976.976l4.149 4.149a.69.69 0 0 0 .976-.976z"/></svg>