<svg xmlns="http://www.w3.org/2000/svg" width="15.06" height="14" viewBox="0 0 15.06 14"><defs><style>.cls-1{fill:#007a6c;fill-rule:evenodd}</style></defs><path id="Forma_1" data-name="Forma 1" class="cls-1" d="M1648.53 535.432a.565.565 0 0 0 1.13 0V526.2a2.156 2.156 0 1 0-1.12-.014v9.247h-.01zm-.43-11.3a1.01 1.01 0 1 1 1.01 1 1.008 1.008 0 0 1-1.01-.996zm6.45-2.146a.56.56 0 0 0-.57.564v4.836a2.121 2.121 0 0 0 0 4.1v3.943a.57.57 0 0 0 1.14 0v-3.943a2.129 2.129 0 0 0 0-4.125v-4.808a.56.56 0 0 0-.57-.563zm1.04 7.449a1.01 1.01 0 1 1-1.01-1 1.008 1.008 0 0 1 1.01 1.004zm4.85 2.376v-9.246a.57.57 0 0 0-1.14 0v9.246a2.132 2.132 0 1 0 2.72 2.049 2.1 2.1 0 0 0-1.58-2.045zm-.55 3.053a1 1 0 1 1 1.01-1 1.017 1.017 0 0 1-1.01 1.004z" transform="translate(-1646.97 -522)"/></svg>