<svg xmlns="http://www.w3.org/2000/svg" width="36.812" height="33.875" viewBox="0 0 36.812 33.875"><defs><style>.cls-1{fill:#ef4d94;fill-rule:evenodd}</style></defs><path class="cls-1" d="M29.294.566a8.5 8.5 0 0 0-9.67 2.72 1.65 1.65 0 0 1-2.477 0A8.5 8.5 0 0 0 7.478.566C3.003 2.246.006 6.966.006 12.326c0 8.28 6.833 13.6 13.466 18.72.879.68 1.8 1.36 2.677 2.08a3.6 3.6 0 0 0 2.238.76 3.716 3.716 0 0 0 2.278-.76c.879-.72 1.8-1.4 2.717-2.12 6.593-5.12 13.426-10.4 13.426-18.68-.042-5.4-3.039-10.12-7.514-11.76zm-6.912 29.16c-.919.72-1.838 1.4-2.717 2.12a2.1 2.1 0 0 1-2.517 0c-.879-.68-1.758-1.4-2.677-2.08-6.313-4.88-12.866-9.961-12.866-17.44 0-5.44 3.236-9.08 6.433-10.24a6.975 6.975 0 0 1 2.477-.48 7.077 7.077 0 0 1 5.434 2.72 3.192 3.192 0 0 0 2.437 1.119 3.131 3.131 0 0 0 2.437-1.119 6.885 6.885 0 0 1 7.912-2.28c3.2 1.16 6.433 4.8 6.433 10.28 0 7.519-6.233 12.319-12.786 17.4zM6.439 12.206a3.66 3.66 0 0 1-.04-.68.8.8 0 1 0-1.6 0 7.739 7.739 0 0 0 .04.92.783.783 0 0 0 .8.68h.12a.84.84 0 0 0 .68-.92zm7.592 10.4a20.455 20.455 0 0 1-6.393-6.72.8.8 0 1 0-1.4.76 21.687 21.687 0 0 0 6.873 7.28.8.8 0 0 0 .44.12.834.834 0 0 0 .679-.361.744.744 0 0 0-.199-1.079z"/></svg>