<svg xmlns="http://www.w3.org/2000/svg" width="28" height="28" viewBox="0 0 28 28"><defs><style>.cls-1{fill:#343434;fill-rule:evenodd}</style></defs><path class="cls-1" d="M24.222 2.976l-1.043 1.048a.55.55 0 0 0 0 .794.543.543 0 0 0 .789 0l1.043-1.049a.549.549 0 0 0 0-.793.542.542 0 0 0-.789 0zM7.644 14.567a.558.558 0 0 0 .395-.17l.62-.6a.576.576 0 0 0 .029-.793.543.543 0 0 0-.79 0l-.62.595a.576.576 0 0 0-.028.794.554.554 0 0 0 .394.174zM28 3.4a3.371 3.371 0 0 0-.987-2.409 3.391 3.391 0 0 0-4.793 0l-7.555 7.6-2.4-2.409a3.916 3.916 0 0 0-5.582 0l-.4.4a1.731 1.731 0 0 0-.423 1.729l-5.385 3.74a1.149 1.149 0 0 0-.479.851 1.2 1.2 0 0 0 .31.906L14.1 27.66a1.182 1.182 0 0 0 .789.34H15a1.138 1.138 0 0 0 .846-.482l3.637-5.356a1.551 1.551 0 0 0 .789.2 1.728 1.728 0 0 0 1.212-.51l.4-.4a4.018 4.018 0 0 0-.028-5.611l-2.425-2.437 7.584-7.624A3.3 3.3 0 0 0 28 3.4zM14.89 26.837l-3.609-3.656 1.382-1.389a.55.55 0 0 0 0-.793.543.543 0 0 0-.79 0l-1.381 1.389-5.188-5.215 1.382-1.389a.55.55 0 0 0 0-.793.543.543 0 0 0-.79 0L4.515 16.38l-3.411-3.43 5.413-3.741 12.1 12.158zm11.334-21.85l-7.979 8.02a.55.55 0 0 0 0 .793l2.791 2.806a2.892 2.892 0 0 1 .028 4.024l-.394.4a.576.576 0 0 1-.818 0L7.081 8.19a.028.028 0 0 0-.029-.028.15.15 0 0 1-.056-.085.564.564 0 0 1 .085-.709l.394-.4a2.764 2.764 0 0 1 2-.821 2.882 2.882 0 0 1 2 .821l2.791 2.806a.542.542 0 0 0 .789 0l7.979-7.992a2.238 2.238 0 0 1 3.158 0 2.238 2.238 0 0 1 .648 1.587 2.12 2.12 0 0 1-.616 1.619z"/></svg>