<svg xmlns="http://www.w3.org/2000/svg" width="28.031" height="28" viewBox="0 0 28.031 28"><defs><style>.cls-1{fill:#343434;fill-rule:evenodd}</style></defs><path class="cls-1" d="M26.8 25.288h-4.45a33.91 33.91 0 0 0 1.554-1.4A14.039 14.039 0 0 0 16.832.246a.61.61 0 1 0-.274 1.189 12.823 12.823 0 0 1 6.462 21.6c-.335.335-1.1 1.036-1.737 1.554v-4.783a.61.61 0 0 0-1.22 0V25.9a.612.612 0 0 0 .61.609h6.1a.611.611 0 0 0 .609-.609.586.586 0 0 0-.582-.612zm-11.34 1.4A12.79 12.79 0 0 1 4.943 4.935 12.018 12.018 0 0 1 7.9 2.742v4.874a.61.61 0 1 0 1.219 0V1.523A.611.611 0 0 0 8.51.914h-6.1a.609.609 0 1 0 0 1.218h4.115a14.653 14.653 0 0 0-2.439 1.95A14.015 14.015 0 0 0 13.968 28a15.118 15.118 0 0 0 1.646-.091.615.615 0 0 0 .549-.671.663.663 0 0 0-.701-.548zM12.137 1.31h.063l.915-.092A.612.612 0 1 0 12.993 0l-.915.091a.614.614 0 0 0-.548.67.623.623 0 0 0 .609.551z"/></svg>