<svg xmlns="http://www.w3.org/2000/svg" width="36.812" height="35" viewBox="0 0 36.812 35"><defs><style>.cls-1{fill:#ef4d94;fill-rule:evenodd}</style></defs><path class="cls-1" d="M24.806 8.01h-16.4a.8.8 0 0 0 0 1.6h16.4a.8.8 0 1 0 0-1.6zm-4 9.61h-12.4a.8.8 0 0 0 0 1.6h12.4a.8.8 0 1 0 0-1.6zm3.2-4.81h-15.6a.805.805 0 0 0 0 1.61h15.6a.805.805 0 0 0 0-1.61zm4.8 0h-1.2a.805.805 0 0 0 0 1.61h1.2a.805.805 0 0 0 0-1.61zm4-12.81h-28.8a4.012 4.012 0 0 0-4 4v19.23a4.012 4.012 0 0 0 4 4h12.92a2.308 2.308 0 0 1 1.48.52l9.12 7.09a.769.769 0 0 0 .48.16 1.168 1.168 0 0 0 .36-.08.756.756 0 0 0 .44-.72v-6.97h4a4.012 4.012 0 0 0 4-4V4a4.012 4.012 0 0 0-4-4zm2.4 23.23a2.407 2.407 0 0 1-2.4 2.4h-4v-2.4a.8.8 0 1 0-1.6 0v9.33l-7.84-6.09a3.925 3.925 0 0 0-2.44-.84H4.006a2.407 2.407 0 0 1-2.4-2.4V4a2.407 2.407 0 0 1 2.4-2.4h28.8a2.407 2.407 0 0 1 2.4 2.4v19.23z"/></svg>