<svg xmlns="http://www.w3.org/2000/svg" width="11.844" height="21.125" viewBox="0 0 11.844 21.125"><defs><style>.cls-1{fill:#2c9c90;fill-rule:evenodd}</style></defs><path id="Forma_1_копия" data-name="Forma 1 копия" class="cls-1" d="M54.173 170.7l-5.656 5.656-2.966 2.966 2.937 2.937 5.656 5.656.02-.02a1.154 1.154 0 0 1 0 1.65 1.873 1.873 0 0 1-2.055 0l-5.656-5.656-2.93-2.93a2.6 2.6 0 0 1-.834-1.685 3.163 3.163 0 0 1 1.1-1.852l2.7-2.7 5.656-5.657-.02-.02a1.873 1.873 0 0 1 2.055 0 1.155 1.155 0 0 1-.007 1.655z" transform="translate(-42.688 -168.75)"/></svg>