<svg xmlns="http://www.w3.org/2000/svg" width="24" height="34" viewBox="0 0 24 34"><defs><style>.cls-1{fill:#343434;fill-rule:evenodd}</style></defs><path class="cls-1" d="M12 0A12.2 12.2 0 0 0 0 12.349c0 4.343 2.74 7.973 5.638 11.765 2.2 2.917 4.5 5.932 5.764 9.464a.635.635 0 0 0 1.2 0c1.26-3.565 3.528-6.579 5.764-9.464 2.9-3.824 5.638-7.422 5.638-11.765A12.2 12.2 0 0 0 12 0zm5.354 23.336A42.821 42.821 0 0 0 12 31.666a41.88 41.88 0 0 0-5.354-8.33c-2.772-3.63-5.386-7.065-5.386-10.987a10.744 10.744 0 1 1 21.48 0c0 3.922-2.614 7.357-5.386 10.987zM12 5.25a7.1 7.1 0 1 1-6.875 7.094A6.987 6.987 0 0 1 12 5.25zm0 1.219a5.877 5.877 0 1 1-5.719 5.875A5.8 5.8 0 0 1 12 6.469z"/></svg>