<svg xmlns="http://www.w3.org/2000/svg" width="30" height="26" viewBox="0 0 30 26"><defs><style>.cls-1{fill:#343434;fill-rule:evenodd}</style></defs><path class="cls-1" d="M23.182 12.316a2.737 2.737 0 1 0 2.727 2.737 2.74 2.74 0 0 0-2.727-2.737zm0 4.105a1.369 1.369 0 1 1 1.363-1.368 1.37 1.37 0 0 1-1.363 1.368zm3.409-12.316h-.341v-.684A3.425 3.425 0 0 0 22.841 0H3.409A3.425 3.425 0 0 0 0 3.421v19.158A3.425 3.425 0 0 0 3.409 26h23.182A3.425 3.425 0 0 0 30 22.579V7.526a3.425 3.425 0 0 0-3.409-3.421zm2.045 18.474a2.055 2.055 0 0 1-2.045 2.053H3.409a2.055 2.055 0 0 1-2.045-2.053V3.421a2.055 2.055 0 0 1 2.045-2.053h19.432a2.055 2.055 0 0 1 2.045 2.053v.684h-16.7a.685.685 0 0 0 0 1.369h18.409a2.054 2.054 0 0 1 2.045 2.052v15.053zM5.114 4.105H4.091a.685.685 0 0 0 0 1.369h1.023a.685.685 0 0 0 0-1.369z"/></svg>