<?xml version="1.0" encoding="UTF-8" standalone="no"?>
<svg width="26px" height="85px" viewBox="0 0 26 85" version="1.1" xmlns="http://www.w3.org/2000/svg" xmlns:xlink="http://www.w3.org/1999/xlink">
    <!-- Generator: Sketch 39.1 (31720) - http://www.bohemiancoding.com/sketch -->
    <title>Group@2x</title>
    <desc>Created with Sketch.</desc>
    <defs></defs>
    <g id="design_1.3" stroke="none" stroke-width="1" fill="none" fill-rule="evenodd">
        <g id="AG_shop_main_catalog_1" transform="translate(-17.000000, -22.000000)" fill="#0EB0A0">
            <g id="Group-20">
                <g id="Group" transform="translate(30.000000, 64.500000) rotate(-90.000000) translate(-30.000000, -64.500000) translate(-12.500000, 51.500000)">
                    <path d="M0.320491803,16.1637273 L5.45013726,16.1637273 L5.45013726,17.0236015 L1.37074249,17.0236015 L1.37074249,23.8381048 L0.320491803,23.8381048 L0.320491803,16.1637273 L0.320491803,16.1637273 Z M8.28548895,16.1637273 L11.7457886,16.1637273 C12.5491422,16.1637273 13.153491,16.3625712 13.5588529,16.760265 C13.9642149,17.1579588 14.1668928,17.7150801 14.1668928,18.4316456 C14.1668928,19.148211 13.9642149,19.7053323 13.5588529,20.1030261 C13.153491,20.5007199 12.5491422,20.6995638 11.7457886,20.6995638 L9.33573964,20.6995638 L9.33573964,23.8381048 L8.28548895,23.8381048 L8.28548895,16.1637273 L8.28548895,16.1637273 Z M11.3920199,19.8396896 C11.9890075,19.8396896 12.4256863,19.7196667 12.7020695,19.4796173 C12.9784526,19.2395678 13.1166421,18.8902474 13.1166421,18.4316456 C13.1166421,17.9730437 12.9784526,17.6237233 12.7020695,17.3836738 C12.4256863,17.1436244 11.9890075,17.0236015 11.3920199,17.0236015 L9.33573964,17.0236015 L9.33573964,19.8396896 L11.3920199,19.8396896 L11.3920199,19.8396896 Z M19.5449567,16.1637273 L20.7057601,16.1637273 L23.7901805,23.8381048 L22.6293771,23.8381048 L21.767066,21.5271928 L18.4283744,21.5271928 L17.5439527,23.8381048 L16.4715915,23.8381048 L19.5449567,16.1637273 L19.5449567,16.1637273 Z M21.4354079,20.6673185 L20.1198307,17.0880921 L20.0977202,17.0880921 L18.7600325,20.6673185 L21.4354079,20.6673185 L21.4354079,20.6673185 Z M29.4446261,19.7107085 L25.9732712,16.1637273 L27.2777931,16.1637273 L30.7270375,19.7429538 L30.7270375,16.1637273 L31.7551776,16.1637273 L31.7551776,19.7429538 L35.204422,16.1637273 L36.5089439,16.1637273 L33.0044232,19.6892116 L36.7521598,23.8381048 L35.4476379,23.8381048 L32.2305543,20.2696267 L31.7551776,20.7640544 L31.7551776,23.8381048 L30.7270375,23.8381048 L30.7270375,20.7640544 L30.1963845,20.2588783 L27.0345772,23.8381048 L25.7300553,23.8381048 L29.4446261,19.7107085 L29.4446261,19.7107085 Z M38.8799742,22.9782305 L39.6538432,22.9782305 C39.8012475,22.720267 39.9375945,22.3978174 40.0628882,22.010872 C40.1881819,21.6239267 40.2968909,21.199368 40.3890186,20.7371833 C40.4811464,20.2749986 40.5530049,19.7841587 40.6045964,19.2646487 C40.6561879,18.7451388 40.6819833,18.2202625 40.6819833,17.690004 L40.6819833,16.1637273 L45.7674077,16.1637273 L45.7674077,22.9782305 L46.640774,22.9782305 L46.640774,25.7405765 L45.6347444,25.7405765 L45.6347444,23.8381048 L39.8860038,23.8381048 L39.8860038,25.7405765 L38.8799742,25.7405765 L38.8799742,22.9782305 L38.8799742,22.9782305 Z M44.717157,22.9782305 L44.717157,17.0236015 L41.6990682,17.0236015 L41.6990682,18.1306896 C41.6990682,18.6036228 41.6751153,19.0783402 41.6272089,19.5548563 C41.5793025,20.0313723 41.5129716,20.4828017 41.4282141,20.9091582 C41.3434566,21.3355146 41.2476452,21.7278283 41.140777,22.086111 C41.0339089,22.4443937 40.9215148,22.7417639 40.8035913,22.9782305 L44.717157,22.9782305 L44.717157,22.9782305 Z M51.7977325,16.1637273 L52.9585359,16.1637273 L56.0429563,23.8381048 L54.882153,23.8381048 L54.0198419,21.5271928 L50.6811502,21.5271928 L49.7967286,23.8381048 L48.7243674,23.8381048 L51.7977325,16.1637273 L51.7977325,16.1637273 Z M53.6881838,20.6673185 L52.3726066,17.0880921 L52.350496,17.0880921 L51.0128083,20.6673185 L53.6881838,20.6673185 L53.6881838,20.6673185 Z M58.7677553,16.1637273 L59.818006,16.1637273 L59.818006,19.4634946 L63.9747877,19.4634946 L63.9747877,16.1637273 L65.0250384,16.1637273 L65.0250384,23.8381048 L63.9747877,23.8381048 L63.9747877,20.3233689 L59.818006,20.3233689 L59.818006,23.8381048 L58.7677553,23.8381048 L58.7677553,16.1637273 L58.7677553,16.1637273 Z M68.7005906,16.1637273 L69.7508413,16.1637273 L69.7508413,22.6665261 L73.7196834,16.1637273 L75.0463158,16.1637273 L75.0463158,23.8381048 L73.9960651,23.8381048 L73.9960651,17.3138091 L70.0161678,23.8381048 L68.7005906,23.8381048 L68.7005906,16.1637273 L68.7005906,16.1637273 Z M78.721868,16.1637273 L79.7721187,16.1637273 L79.7721187,19.4634946 L83.9289004,19.4634946 L83.9289004,16.1637273 L84.9791511,16.1637273 L84.9791511,23.8381048 L83.9289004,23.8381048 L83.9289004,20.3233689 L79.7721187,20.3233689 L79.7721187,23.8381048 L78.721868,23.8381048 L78.721868,16.1637273 L78.721868,16.1637273 Z" id="ГРАЖДАНИН"></path>
                    <path d="M3.51702788,2.51400591 L5.44762219,2.51400591 L8.64929102,10.8381375 L6.69471417,10.8381375 L6.04718564,8.98444431 L2.84551682,8.98444431 L2.17400575,10.8381375 L0.279385246,10.8381375 L3.51702788,2.51400591 L3.51702788,2.51400591 Z M5.55554361,7.62040594 L4.4763294,4.56589268 L4.45234686,4.56589268 L3.33715885,7.62040594 L5.55554361,7.62040594 L5.55554361,7.62040594 Z M11.508856,2.51400591 L13.3914852,2.51400591 L13.3914852,5.84832191 L16.7370493,2.51400591 L19.087338,2.51400591 L15.3940272,5.99988173 L19.4111023,10.8381375 L17.0488223,10.8381375 L14.0270225,7.14240959 L13.3914852,7.8069411 L13.3914852,10.8381375 L11.508856,10.8381375 L11.508856,2.51400591 L11.508856,2.51400591 Z M24.177279,4.05292099 L21.6111475,4.05292099 L21.6111475,2.51400591 L28.6260398,2.51400591 L28.6260398,4.05292099 L26.0599083,4.05292099 L26.0599083,10.8381375 L24.177279,10.8381375 L24.177279,4.05292099 L24.177279,4.05292099 Z M31.7254302,2.51400591 L33.5960682,2.51400591 L33.5960682,8.28493745 L33.632042,8.28493745 L36.8936671,2.51400591 L39.0041305,2.51400591 L39.0041305,10.8381375 L37.1334925,10.8381375 L37.1334925,5.05554748 L37.0975187,5.05554748 L33.8358935,10.8381375 L31.7254302,10.8381375 L31.7254302,2.51400591 L31.7254302,2.51400591 Z M42.7750319,2.51400591 L46.8040983,2.51400591 C47.2118035,2.51400591 47.5835291,2.5489809 47.9192863,2.61893194 C48.2550435,2.68888297 48.5428311,2.80352323 48.7826577,2.96285614 C49.0224843,3.12218905 49.2083471,3.33398206 49.3402517,3.59824153 C49.4721563,3.862501 49.5381076,4.18893426 49.5381076,4.57755113 C49.5381076,4.99725734 49.4401799,5.34700727 49.2443215,5.62681141 C49.0484632,5.90661555 48.7586771,6.13589606 48.3749545,6.31465982 C48.902573,6.46233422 49.2962824,6.72076056 49.5560945,7.08994658 C49.8159067,7.4591326 49.9458108,7.90409223 49.9458108,8.42483883 C49.9458108,8.84454504 49.8618727,9.20789635 49.6939941,9.51490367 C49.5261155,9.82191099 49.3002822,10.0725651 49.0164874,10.2668735 C48.7326927,10.461182 48.4089316,10.6049681 48.0451946,10.6982361 C47.6814577,10.7915041 47.3077335,10.8381375 46.924011,10.8381375 L42.7750319,10.8381375 L42.7750319,2.51400591 L42.7750319,2.51400591 Z M46.6721943,9.41580687 C46.8560614,9.41580687 47.0319316,9.39831937 47.1998102,9.36334385 C47.3676888,9.32836834 47.5155796,9.27007668 47.6434871,9.18846714 C47.7713946,9.1068576 47.8733194,8.99610346 47.9492645,8.85620139 C48.0252096,8.71629931 48.0631815,8.53753824 48.0631815,8.3199128 C48.0631815,7.89243425 47.939273,7.58737459 47.6914522,7.40472466 C47.4436314,7.22207474 47.1158733,7.13075114 46.7081681,7.13075114 L44.6576611,7.13075114 L44.6576611,9.41580687 L46.6721943,9.41580687 L46.6721943,9.41580687 Z M46.5642729,5.88329725 C46.9000301,5.88329725 47.1758266,5.80557505 47.3916705,5.6501283 C47.6075144,5.49468156 47.7154347,5.24208439 47.7154347,4.89232921 C47.7154347,4.69802078 47.6794613,4.53869026 47.6075133,4.41433286 C47.5355654,4.28997547 47.4396362,4.19282271 47.3197229,4.12287167 C47.1998096,4.05292064 47.0619114,4.00434426 46.9060241,3.97714108 C46.7501368,3.9499379 46.5882563,3.93633651 46.4203777,3.93633651 L44.6576611,3.93633651 L44.6576611,5.88329725 L46.5642729,5.88329725 L46.5642729,5.88329725 Z M53.3329916,2.51400591 L55.2156208,2.51400591 L55.2156208,5.70842054 L58.6810976,5.70842054 L58.6810976,2.51400591 L60.5637268,2.51400591 L60.5637268,10.8381375 L58.6810976,10.8381375 L58.6810976,7.24733562 L55.2156208,7.24733562 L55.2156208,10.8381375 L53.3329916,10.8381375 L53.3329916,2.51400591 L53.3329916,2.51400591 Z M64.3346282,2.51400591 L66.2172575,2.51400591 L66.2172575,5.52188538 L67.9919653,5.52188538 C68.4236531,5.52188538 68.8233581,5.57434787 69.1910922,5.67927442 C69.5588263,5.78420098 69.8785903,5.94547455 70.1503937,6.1631 C70.4221972,6.38072544 70.6360393,6.65663927 70.7919266,6.99084977 C70.9478139,7.32506028 71.0257564,7.71755742 71.0257564,8.16835298 C71.0257564,8.62692088 70.9498124,9.02330413 70.7979222,9.35751463 C70.6460321,9.69172513 70.4321899,9.96958202 70.1563893,10.1910936 C69.8805888,10.4126052 69.5508322,10.5758219 69.1671097,10.6807484 C68.7833871,10.785675 68.3596999,10.8381375 67.8960351,10.8381375 L64.3346282,10.8381375 L64.3346282,2.51400591 L64.3346282,2.51400591 Z M67.7521399,9.34585618 C68.2078104,9.34585618 68.5635478,9.25647565 68.8193629,9.07771189 C69.0751779,8.89894813 69.2030835,8.58805931 69.2030835,8.14503608 C69.2030835,7.92741064 69.16711,7.7428204 69.095162,7.59125982 C69.0232141,7.43969925 68.9212893,7.31728677 68.7893847,7.22401873 C68.6574801,7.13075068 68.5015951,7.06274375 68.3217252,7.01999589 C68.1418553,6.97724804 67.9479983,6.95587443 67.7401486,6.95587443 L66.2172575,6.95587443 L66.2172575,9.34585618 L67.7521399,9.34585618 L67.7521399,9.34585618 Z M71.9370928,2.51400591 L73.819722,2.51400591 L73.819722,10.8381375 L71.9370928,10.8381375 L71.9370928,2.51400591 L71.9370928,2.51400591 Z M77.5906235,2.51400591 L79.4612614,2.51400591 L79.4612614,8.28493745 L79.4972352,8.28493745 L82.7588604,2.51400591 L84.8693237,2.51400591 L84.8693237,10.8381375 L82.9986858,10.8381375 L82.9986858,5.05554748 L82.962712,5.05554748 L79.7010868,10.8381375 L77.5906235,10.8381375 L77.5906235,2.51400591 L77.5906235,2.51400591 Z M81.3438907,1.80284061 C79.8010063,1.80284061 79.0295757,1.20437961 79.0295757,0.00743967956 L80.4205629,0.00743967956 C80.4285572,0.248382134 80.5005041,0.446573761 80.6364058,0.602020506 C80.7723075,0.75746725 81.0081334,0.835189457 81.3438907,0.835189457 C81.6796479,0.835189457 81.9194709,0.759410306 82.0633668,0.607849729 C82.2072627,0.456289153 82.2752126,0.256154471 82.2672184,0.00743967956 L83.6582056,0.00743967956 C83.6582056,1.20437961 82.886775,1.80284061 81.3438907,1.80284061 L81.3438907,1.80284061 L81.3438907,1.80284061 Z" id="АКТИВНЫЙ"></path>
                </g>
            </g>
        </g>
    </g>
</svg>