<?xml version="1.0" encoding="UTF-8" standalone="no"?>
<!-- Created with Inkscape (http://www.inkscape.org/) -->

<svg
   xmlns:dc="http://purl.org/dc/elements/1.1/"
   xmlns:cc="http://creativecommons.org/ns#"
   xmlns:rdf="http://www.w3.org/1999/02/22-rdf-syntax-ns#"
   xmlns:svg="http://www.w3.org/2000/svg"
   xmlns="http://www.w3.org/2000/svg"
   xmlns:sodipodi="http://sodipodi.sourceforge.net/DTD/sodipodi-0.dtd"
   xmlns:inkscape="http://www.inkscape.org/namespaces/inkscape"
   id="svg4209"
   version="1.1"
   inkscape:version="0.91 r13725"
   xml:space="preserve"
   width="22.5mm"
   height="76mm"
   viewBox="0 0 79.724408 269.29135"
   sodipodi:docname="AG-logo-small.ai.svg"><metadata
     id="metadata4215"><rdf:RDF><cc:Work
         rdf:about=""><dc:format>image/svg+xml</dc:format><dc:type
           rdf:resource="http://purl.org/dc/dcmitype/StillImage" /><dc:title></dc:title></cc:Work></rdf:RDF></metadata><defs
     id="defs4213"><clipPath
       clipPathUnits="userSpaceOnUse"
       id="clipPath4247"><path
         d="m 0,595.28 841.89,0 L 841.89,0 0,0 0,595.28 Z"
         id="path4249"
         inkscape:connector-curvature="0" /></clipPath></defs><sodipodi:namedview
     pagecolor="#ffffff"
     bordercolor="#666666"
     borderopacity="1"
     objecttolerance="10"
     gridtolerance="10"
     guidetolerance="10"
     inkscape:pageopacity="0"
     inkscape:pageshadow="2"
     inkscape:window-width="1920"
     inkscape:window-height="1031"
     id="namedview4211"
     showgrid="false"
     inkscape:zoom="1.1732294"
     inkscape:cx="526.18127"
     inkscape:cy="246.7548"
     inkscape:window-x="0"
     inkscape:window-y="0"
     inkscape:window-maximized="1"
     inkscape:current-layer="g4217"
     units="mm" /><g
     id="g4217"
     inkscape:groupmode="layer"
     inkscape:label="AG-logo-small"
     transform="matrix(1.25,0,0,-1.25,0,269.2913)"><g
       id="g4406"
       transform="matrix(0,1,-1,0,297.13161,-339.37156)"><path
         d="m 487.9736,278.7783 1.444,0 c 1.521,0 2.186,-0.742 2.186,-1.912 0,-1.094 -0.74,-1.913 -2.186,-1.913 l -1.444,0 0,3.825 z m 9.76,-1.912 c 0,4.996 -3.708,6.441 -8.55,6.441 l -1.21,0 0,5.425 -6.023,0 0,-18.306 7.233,0 c 4.842,0 8.55,1.484 8.55,6.44"
         style="fill:#007a6c;fill-opacity:1;fill-rule:nonzero;stroke:none"
         id="path4293"
         inkscape:connector-curvature="0" /><g
         style="fill:#007a6c;fill-opacity:1"
         id="g4382"><g
           style="fill:#007a6c;fill-opacity:1"
           id="g4223"
           transform="translate(351.0098,277.0967)"><path
             d="M 0,0 2.197,5.787 4.392,0 0,0 Z m 5.244,11.617 -9.463,0 1.761,-3.951 -6.536,-14.354 6.455,0 0.993,2.62 7.482,0 0.994,-2.62 6.455,0 -8.141,18.305 z"
             style="fill:#007a6c;fill-opacity:1;fill-rule:nonzero;stroke:none"
             id="path4225"
             inkscape:connector-curvature="0" /></g><g
           style="fill:#007a6c;fill-opacity:1"
           id="g4227"
           transform="translate(547.2686,256.0537)"><path
             d="m 0,0 0,-6.494 -5.512,0 0,6.494 -6.063,0 0,-18.307 6.063,0 0,6.532 5.512,0 0,-6.532 6.025,0 L 6.025,0 0,0 Z"
             style="fill:#007a6c;fill-opacity:1;fill-rule:nonzero;stroke:none"
             id="path4229"
             inkscape:connector-curvature="0" /></g><g
           style="fill:#007a6c;fill-opacity:1"
           id="g4231"
           transform="translate(517.4785,246.7041)"><path
             d="m 0,0 0,9.35 -5.94,0 0,-18.307 4.887,0 7.001,9.269 0,-9.269 5.944,0 0,18.307 -4.886,0 L 0,0 Z"
             style="fill:#007a6c;fill-opacity:1;fill-rule:nonzero;stroke:none"
             id="path4233"
             inkscape:connector-curvature="0" /></g><g
           style="fill:#007a6c;fill-opacity:1"
           id="g4235"
           transform="translate(499,249.5596)"><path
             d="m 0,0 -5.472,0 0,6.494 -6.065,0 0,-18.307 6.065,0 0,6.532 5.472,0 0,-6.532 6.028,0 0,18.307 L 0,6.494 0,0 Z"
             style="fill:#007a6c;fill-opacity:1;fill-rule:nonzero;stroke:none"
             id="path4237"
             inkscape:connector-curvature="0" /></g><g
           style="fill:#007a6c;fill-opacity:1"
           id="g4239"
           transform="translate(387.5557,244.4355)"><path
             d="M 0,0 2.199,5.786 4.396,0 0,0 Z m -4.216,11.618 1.756,-3.955 -6.53,-14.351 6.455,0 0.996,2.619 7.476,0 0.997,-2.619 6.455,0 -8.141,18.306 -9.464,0 z"
             style="fill:#007a6c;fill-opacity:1;fill-rule:nonzero;stroke:none"
             id="path4241"
             inkscape:connector-curvature="0" /></g><path
           inkscape:connector-curvature="0"
           id="path4253"
           style="fill:#007a6c;fill-opacity:1;fill-rule:nonzero;stroke:none"
           d="m 368.7988,247.4863 -2.433,0 0,3.951 2.158,0 c 1.723,0 2.465,-0.821 2.465,-1.995 0,-1.135 -0.82,-1.956 -2.19,-1.956 m -0.232,8.567 -9.936,0 1.718,-4.304 0,-14.002 6.017,0 0,5.163 2.201,0 c 4.848,0.038 9.336,1.641 9.336,6.532 0,4.928 -4.488,6.611 -9.336,6.611" /><path
           inkscape:connector-curvature="0"
           id="path4257"
           style="fill:#007a6c;fill-opacity:1;fill-rule:nonzero;stroke:none"
           d="m 341.3516,237.7471 6.065,0 0,12.947 7.941,0 0,5.36 -14.006,0 0,-18.307 z" /><path
           inkscape:connector-curvature="0"
           id="path4261"
           style="fill:#007a6c;fill-opacity:1;fill-rule:nonzero;stroke:none"
           d="m 449.6152,242.4375 -4.735,0 c 1.213,2.466 1.644,6.068 1.88,9 l 2.855,0 0,-9 z m 5.905,13.616 -15.804,0 1.563,-4.304 c -0.505,-4.458 -1.21,-7.12 -2.462,-9.312 l -2.426,0 0,-8.446 5.397,0 0,3.756 10.642,0 0,-3.756 5.398,0 0,8.446 -2.308,0 0,13.616 z" /><path
           inkscape:connector-curvature="0"
           id="path4265"
           style="fill:#007a6c;fill-opacity:1;fill-rule:nonzero;stroke:none"
           d="m 432.3594,256.0537 -6.69,0 -2.468,-6.848 -1.837,0 0,6.848 -5.825,0 0,-6.848 -1.959,0 -2.424,6.848 -6.651,0 3.912,-8.762 -4.81,-9.545 6.924,0 2.852,6.612 2.156,0 0,-6.612 5.825,0 0,6.612 2.037,0 2.892,-6.612 6.927,0 -4.853,9.545 3.992,8.762 z" /><path
           inkscape:connector-curvature="0"
           id="path4269"
           style="fill:#007a6c;fill-opacity:1;fill-rule:nonzero;stroke:none"
           d="m 470.1348,244.4355 2.193,5.786 2.199,-5.786 -4.392,0 z m -4.219,11.618 1.758,-3.955 -6.532,-14.351 6.454,0 0.995,2.619 7.48,0 0.992,-2.619 6.457,0 -8.138,18.306 -9.466,0 z" /><path
           inkscape:connector-curvature="0"
           id="path4273"
           style="fill:#007a6c;fill-opacity:1;fill-rule:nonzero;stroke:none"
           d="m 367.8428,288.7324 0,-18.306 6.01,0 0,6.518 1.753,0 3.786,-6.518 7.303,0 -5.739,9.524 4.84,8.782 -6.99,0 -3.241,-6.908 -1.712,0 0,6.908 -6.01,0 z" /><path
           inkscape:connector-curvature="0"
           id="path4277"
           style="fill:#007a6c;fill-opacity:1;fill-rule:nonzero;stroke:none"
           d="m 394.7236,270.4268 5.975,0 0,13.154 5.504,0 0,5.152 -17.058,0 0,-5.152 5.579,0 0,-13.154 z" /><path
           inkscape:connector-curvature="0"
           id="path4281"
           style="fill:#007a6c;fill-opacity:1;fill-rule:nonzero;stroke:none"
           d="m 441.377,277.9229 3.278,0 c 1.205,0 1.794,-0.666 1.794,-1.562 0,-0.899 -0.739,-1.602 -1.794,-1.602 l -3.278,0 0,3.164 z m 0.037,6.436 2.377,0 c 1.606,0 1.956,-0.702 1.956,-1.286 0,-0.974 -0.589,-1.445 -1.837,-1.445 l -2.496,0 0,2.731 z m 3.042,-13.932 c 4.019,0 7.967,1.483 7.967,5.383 0,1.213 -0.432,2.384 -1.328,3.205 -0.551,0.467 -1.172,0.857 -1.956,1.092 1.799,0.701 2.62,2.263 2.62,3.902 0,2.929 -2.15,4.724 -6.952,4.724 l -11.122,0 1.718,-4.374 0,-13.932 9.053,0 z" /><path
           inkscape:connector-curvature="0"
           id="path4285"
           style="fill:#007a6c;fill-opacity:1;fill-rule:nonzero;stroke:none"
           d="m 422.8047,279.6826 0,-9.272 5.943,0 0,18.307 -4.887,0 -7.004,-9.347 0,9.347 -5.945,0 0,-18.307 4.889,0 7.004,9.272 z" /><path
           inkscape:connector-curvature="0"
           id="path4289"
           style="fill:#007a6c;fill-opacity:1;fill-rule:nonzero;stroke:none"
           d="m 464.0088,276.9795 5.479,0 0,-6.533 6.021,0 0,18.306 -6.021,0 0,-6.492 -5.479,0 0,6.492 -6.065,0 0,-18.306 6.065,0 0,6.533 z" /><path
           d="m 499.558,270.427 6.024,0 0,18.306 -6.024,0 0,-18.306 z"
           style="fill:#007a6c;fill-opacity:1;fill-rule:nonzero;stroke:none"
           id="path4295"
           inkscape:connector-curvature="0" /><path
           inkscape:connector-curvature="0"
           id="path4299"
           style="fill:#007a6c;fill-opacity:1;fill-rule:nonzero;stroke:none"
           d="m 517.4785,279.3682 0,9.35 -5.94,0 0,-18.308 4.887,0 7.001,9.272 0,-9.272 5.947,0 0,18.308 -4.889,0 -7.006,-9.35 z" /></g><path
         d="m 525.6729,292.5166 -0.975,3.638 c -1.261,-0.645 -2.435,-1.059 -4.242,-1.059 -1.806,0 -2.978,0.414 -4.242,1.059 l -0.975,-3.638 c 1.329,-1.051 3.17,-1.765 5.217,-1.765 2.047,0 3.889,0.714 5.217,1.765"
         style="fill:#007a6c;fill-opacity:1;fill-rule:nonzero;stroke:none"
         id="path4303"
         inkscape:connector-curvature="0" /></g></g></svg>